<?xml version="1.0" encoding="UTF-8"?>
<svg width="93px" height="36px" viewBox="0 0 93 36" version="1.1" xmlns="http://www.w3.org/2000/svg" xmlns:xlink="http://www.w3.org/1999/xlink">
    <title>noun_Battery_1301642</title>
    <g id="Page-1" stroke="none" stroke-width="1" fill="none" fill-rule="evenodd">
        <g id="noun_Battery_1301642" fill="#000000" fill-rule="nonzero">
            <path d="M90.2446594,9.40668701 L86.4654083,9.3898468 L86.4654083,5.7363396 C86.4654083,2.7667351 84.0498276,0.3506089 81.0796814,0.3506089 L5.3857298,0.3506089 C2.4161258,0.3506089 0,2.7667351 0,5.7363396 L0,30.2636605 C0,33.2338105 2.4161258,35.6493912 5.3857298,35.6493912 L81.0796843,35.6493912 C84.0498305,35.6493912 86.4654112,33.2338105 86.4654112,30.2636605 L86.4654112,26.6096078 L90.2446594,26.6096078 C91.7637148,26.6096077 93,25.6870977 93,24.1680433 L93,12.1625731 C93,10.6429694 91.7637177,9.40668701 90.2446594,9.40668701 Z M84.7819624,30.2636604 C84.7819624,32.3055038 83.121521,33.9659424 81.0796814,33.9659424 L5.3857298,33.9659424 C3.3444357,33.9659424 1.6834517,32.3055039 1.6834517,30.2636604 L1.6834517,5.7363396 C1.6834517,3.6950455 3.3444357,2.0340615 5.3857298,2.0340615 L81.0796843,2.0340615 C83.1215239,2.0340615 84.7819624,3.6950455 84.7819624,5.7363396 L84.7819624,30.2636604 L84.7819624,30.2636604 Z" id="Shape"></path>
            <path d="M41.0796509,3.4369507 L5.3857422,3.4369507 C4.1176758,3.4369507 3.0863037,4.4682617 3.0863037,5.7363281 L3.0863037,30.2636719 C3.0863037,31.5317383 4.1176758,32.5630493 5.3857422,32.5630493 L41.0796509,32.5630493 C42.3477173,32.5630493 43.3790894,31.5317383 43.3790894,30.2636719 L43.3790894,5.7363281 C43.3790894,4.4682617 42.3477173,3.4369507 41.0796509,3.4369507 Z" id="Path"></path>
        </g>
    </g>
</svg>