<?xml version="1.0" encoding="UTF-8"?>
<svg width="609px" height="766px" viewBox="0 0 609 766" version="1.1" xmlns="http://www.w3.org/2000/svg" xmlns:xlink="http://www.w3.org/1999/xlink">
    <!-- Generator: Sketch 57.1 (83088) - https://sketch.com -->
    <title>pause-icon</title>
    <desc>Created with Sketch.</desc>
    <g id="Page-1" stroke="none" stroke-width="1" fill="none" fill-rule="evenodd">
        <g id="pause-icon" fill="#FFFFFF" fill-rule="nonzero">
            <path d="M131,0 C203,0 262,59 262,131 L262,635 C262,707 203,766 131,766 C59,766 0,707 0,635 L0,131 C0,59 59,0 131,0 Z" id="Path"></path>
            <path d="M478,0 C550,0 609,59 609,131 L609,635 C609,707 550,766 478,766 C406,766 347,707 347,635 L347,131 C347,59 406,0 478,0 Z" id="Path"></path>
        </g>
    </g>
</svg>