<?xml version="1.0" encoding="utf-8"?>
<!-- Generator: Adobe Illustrator 24.1.2, SVG Export Plug-In . SVG Version: 6.00 Build 0)  -->
<svg version="1.1" id="Layer_1" xmlns="http://www.w3.org/2000/svg" xmlns:xlink="http://www.w3.org/1999/xlink" x="0px" y="0px"
	 viewBox="0 0 500 500" style="enable-background:new 0 0 500 500;" xml:space="preserve">
<g id="_x36_kQsFc_1_">
	<g>
		<path d="M393,249.9c0,69-56.3,125.2-125.3,125.1c-69-0.1-124.9-56-125-125.1c0-69.2,56.1-125.2,125.6-125.1
			C336.9,125,393,181.2,393,249.9z M311.1,249.9c0-24-19.5-43.5-43.5-43.4c-23.8,0.1-43.2,19.5-43.1,43.4
			c0,23.9,19.2,43.3,43.1,43.4C291.6,293.5,311.1,274,311.1,249.9z M350.3,302c-0.1-10-8.2-18.1-18.2-18.1c-10,0-18.1,8.2-18,18.2
			c0,10,8.3,18.2,18.2,18.1C342.3,320.2,350.3,312,350.3,302z M349.7,196.9c-0.1-10-8.3-18.1-18.2-18c-9.9,0.1-18.1,8.3-18,18.3
			c0.1,10,8.3,18,18.3,17.9C341.8,215.1,349.8,207,349.7,196.9z M184.7,268.5c10.1,0.1,18.2-7.9,18.3-17.9c0.1-10-8-18.2-18-18.3
			c-10-0.1-18.2,7.9-18.2,18C166.8,260.4,174.7,268.5,184.7,268.5z M263.2,170.2c0-10-8.1-18.2-18.1-18.2c-9.9,0-18.1,8.2-18.1,18.2
			c0,9.9,8.2,18.2,18.1,18.1C255.1,188.4,263.2,180.2,263.2,170.2z M246,348c10,0,18.1-8.1,18.2-18.1c0.1-10-8.1-18.1-18.1-18.1
			c-10,0-18.1,8-18.1,18C227.9,339.9,236,348,246,348z"/>
		<path d="M137.7,52.2c12.5,17.2,25,34.3,37.5,51.5c7.9,10.9,6.2,26-4,34.9c-22.5,19.6-38.1,44.1-46,74.2c-7.8,30-6.1,58.9,3.9,87
			c4.5,12.7-1.3,26.7-13.6,32.4c-19.4,8.9-38.8,17.8-58.1,26.7c-13.6,6.3-29.6-0.3-35.1-14.3C-16.2,245,9.1,123.3,100.1,47.6
			C111.7,38,128.9,40.1,137.7,52.2z"/>
		<path d="M183,70.9c-5.8-8-11.5-15.7-17.1-23.5C257.6-1.1,390.2,20.9,458.7,127c70.6,109.5,34.7,254.2-76.1,318.9
			c-109.3,63.8-241.7,24.3-302.8-69c4.2-1.9,8.3-3.9,12.5-5.8c3.8-1.8,7.7-3.4,11.4-5.3c2-1,3.1-0.8,4.5,1.1
			c10.4,14.4,22.6,27.1,36.6,38.1c30.3,23.9,64.6,38.2,103,41.8c56.8,5.4,107.3-10.4,150.3-47.8c38.2-33.2,60.5-75.4,66.4-125.7
			c11-93.4-43.8-180.5-132.8-210.8c-49.2-16.7-97.9-13.9-145.5,7.1C185.1,70,184.2,70.4,183,70.9z"/>
	</g>
</g>
</svg>
