<?xml version="1.0" encoding="utf-8"?>
<!-- Generator: Adobe Illustrator 24.1.2, SVG Export Plug-In . SVG Version: 6.00 Build 0)  -->
<svg version="1.1" id="Layer_1" focusable="false" xmlns="http://www.w3.org/2000/svg" xmlns:xlink="http://www.w3.org/1999/xlink"
	 x="0px" y="0px" viewBox="0 0 512 512" style="enable-background:new 0 0 512 512;" xml:space="preserve">
<path d="M504,256c0,137-111,248-248,248c-63.9,0-122.2-24.2-166.2-63.9c-5.1-4.6-5.4-12.6-0.5-17.4L129,383
	c4.5-4.5,11.6-4.7,16.4-0.6C176,409.3,214.9,424,256,424c93.8,0,167.2-76,168-166.6C424.8,162,346.9,87.2,254.5,88
	c-42.4,0.4-82.4,16.4-113.2,45.3L183,175c15.1,15.1,4.4,41-17,41H32c-13.3,0-24-10.7-24-24V57.9c0-21.4,25.9-32.1,41-17l35.7,35.7
	C129.1,34.2,189.3,8.1,255.5,8C392.4,7.8,504,119.2,504,256z"/>
</svg>
