<?xml version="1.0" encoding="utf-8"?>
<!-- Generator: Adobe Illustrator 24.1.2, SVG Export Plug-In . SVG Version: 6.00 Build 0)  -->
<svg version="1.1" id="Layer_1" focusable="false" xmlns="http://www.w3.org/2000/svg" xmlns:xlink="http://www.w3.org/1999/xlink"
	 x="0px" y="0px" viewBox="0 0 512 512" style="enable-background:new 0 0 512 512;" xml:space="preserve">
<path d="M335.2,202.6l-64.4,82.9c-4.7-1.3-9.6-2.3-14.7-2.3c-30.1,0-54.4,24.4-54.4,54.4c0,10,2.9,19.2,7.6,27.2h93.8
	c4.7-8,7.6-17.3,7.6-27.2c0-9.9-2.9-19.1-7.5-27.1l64.4-82.8c6.9-8.9,5.3-21.7-3.6-28.6C354.8,192.1,342.1,193.8,335.2,202.6z
	 M256,65.4c-135.3,0-245,109.7-245,245c0,44.9,12.1,87,33.2,123.2c4.8,8.2,13.9,12.9,23.3,12.9h376.9c9.5,0,18.6-4.7,23.3-12.9
	c21.1-36.2,33.2-78.3,33.2-123.2C501,175.1,391.3,65.4,256,65.4z M436.6,405.7H75.4c-15.5-29.2-23.6-62-23.6-95.3
	c0-112.6,91.6-204.2,204.2-204.2s204.2,91.6,204.2,204.2C460.2,343.7,452,376.5,436.6,405.7L436.6,405.7z"/>
</svg>
