<?xml version="1.0" encoding="UTF-8"?>
<svg width="136px" height="117px" viewBox="0 0 136 117" version="1.1" xmlns="http://www.w3.org/2000/svg" xmlns:xlink="http://www.w3.org/1999/xlink">
    <!-- Generator: Sketch 52.4 (67378) - http://www.bohemiancoding.com/sketch -->
    <title>antenna</title>
    <desc>Created with Sketch.</desc>
    <g id="Page-1" stroke="none" stroke-width="1" fill="none" fill-rule="evenodd">
        <g id="antenna" transform="translate(0.000000, -1.000000)" fill="#FFFFFF" fill-rule="nonzero">
            <g id="Group" transform="translate(0.000000, 0.933340)">
                <path d="M116,40.2652422 C103.138721,27.3417489 85.69256,20.080988 67.5051847,20.080988 C49.3144193,20.080988 31.8618773,27.3478472 19,40.2755811 L26.4608022,47.7735195 C37.3465062,36.832003 52.1091791,30.6857498 67.5051847,30.6857498 C82.8981991,30.6857498 97.654092,36.8252173 108.539198,47.7631265 L116,40.2652422 Z M7.80706806,37.3358728 C18.6921738,26.3979636 33.0649748,11.2584961 67.8410811,11.2584961 C102.617188,11.2584961 116.99976,26.4047493 127.885464,37.3462658 L135.346266,29.8483274 C122.484388,16.9205936 102.983073,0.653734101 67.8410811,0.653734101 C32.6990894,0.653734101 13.0130208,16.4670506 0.346265899,29.8379885 L7.80706806,37.3358728 Z M97.8056789,52.3077946 C89.8914137,44.3537987 79.1554682,39.8803396 67.9626696,39.8803396 C56.7704693,39.8803396 46.0339255,44.354434 38.1196604,52.3077946 L45.5804626,59.8056789 C51.5185544,53.8381669 59.5650297,50.4850997 67.9626696,50.4850997 C76.3607084,50.4850997 84.4065855,53.8376899 90.3448767,59.8056789 L97.8056789,52.3077946 Z M67.8283309,60 C59.1490773,60 52,67.1847175 52,75.9071421 C52,82.7639971 56.4460211,88.6070035 62.5522213,90.8200752 L62.5522213,116.838024 L73.1044425,116.838024 L73.1044425,90.8200752 C79.2106427,88.6070035 83.6566638,82.7639971 83.6566638,75.9071421 C83.6566638,67.1847175 76.5075865,60 67.8283309,60 Z" id="Shape"></path>
            </g>
        </g>
    </g>
</svg>