<?xml version="1.0" encoding="UTF-8"?>
<svg width="497px" height="497px" viewBox="0 0 497 497" version="1.1" xmlns="http://www.w3.org/2000/svg" xmlns:xlink="http://www.w3.org/1999/xlink">
    <!-- Generator: Sketch 57.1 (83088) - https://sketch.com -->
    <title>ambientLightIcon</title>
    <desc>Created with Sketch.</desc>
    <g id="Page-1" stroke="none" stroke-width="1" fill="none" fill-rule="evenodd">
        <g id="ambientLightIcon" fill="#000000" fill-rule="nonzero">
            <path d="M249,145 C191.512563,145 145,191.512563 145,249 C145,306.487437 191.512563,353 249,353 C306.487437,353 353,306.487437 353,249 C353,191.512563 306.487437,145 249,145 Z" id="Path"></path>
            <path d="M248.5,111 C264.563636,111 277,97.9103774 277,82.2028302 L277,28.7971698 C277,13.0896226 264.045455,0 248.5,0 C232.954545,0 220,13.0896226 220,28.7971698 L220,81.6792453 C220,97.9103774 232.954545,111 248.5,111 Z" id="Path"></path>
            <path d="M110.934066,151.654184 C116.153846,156.870319 123.461538,160 131.291209,160 C139.120879,160 146.428571,156.870319 151.648352,151.654184 C156.868132,146.438048 160,139.135459 160,131.311256 C160,123.487053 156.868132,116.184464 151.648352,110.968329 L114.065934,73.412155 L114.065934,73.412155 C102.582418,61.9366575 84.3131868,62.458271 73.3516484,73.412155 C68.1318681,78.6282902 65,85.9308796 65,93.7550824 C65,101.579285 68.1318681,108.881875 73.3516484,114.09801 L110.934066,151.654184 Z" id="Path"></path>
            <path d="M111,248.5 C111,232.954545 97.9103774,220 82.2028302,220 L28.7971698,220 C13.0896226,220 0,232.954545 0,248.5 C0,264.045455 13.0896226,277 28.7971698,277 L81.6792453,277 C97.9103774,277 111,264.045455 111,248.5 Z" id="Path"></path>
            <path d="M110.934066,345.251257 L73.3516484,382.149201 C68.1318681,387.346094 65,394.621745 65,402.417086 C65,410.212426 68.1318681,417.488077 73.3516484,422.68497 C78.5714286,428.401553 85.8791209,431 93.7087912,431 C101.538462,431 108.846154,427.881864 114.065934,422.68497 L151.648352,385.267337 C156.868132,380.070443 160,372.794793 160,364.999452 C160,357.204112 156.868132,349.928461 151.648352,344.731568 C140.164835,334.337781 121.895604,334.337781 110.934066,345.251257 Z" id="Path"></path>
            <path d="M248.5,386 C232.436364,386 220,399.089623 220,414.79717 L220,468.20283 C220,483.910377 232.954545,497 248.5,497 C264.045455,497 277,483.910377 277,468.20283 L277,414.79717 C277,399.089623 264.563636,386 248.5,386 Z" id="Path"></path>
            <path d="M386.065934,345.232462 C374.582418,334.255846 356.313187,334.255846 345.351648,345.232462 C340.131868,350.459422 337,357.777166 337,365.617607 C337,373.458047 340.131868,380.775791 345.351648,386.002751 L382.934066,423.636864 C388.153846,428.863824 395.461538,432 403.291209,432 C411.120879,432 418.428571,428.863824 423.648352,423.636864 C428.868132,418.409904 432,411.09216 432,403.251719 C432,395.411279 428.868132,388.093535 423.648352,382.866575 L386.065934,345.232462 Z" id="Path"></path>
            <path d="M468.20283,220 L414.79717,220 C398.566038,220 386,232.954545 386,248.5 C386,264.045455 399.089623,277 414.79717,277 L468.20283,277 C484.433962,277 497,264.045455 497,248.5 C497,232.954545 483.910377,220 468.20283,220 Z" id="Path"></path>
            <path d="M365.708791,160 C373.538462,160 380.846154,156.859504 386.065934,151.625344 L423.648352,114.46281 C428.868132,109.22865 432,101.900826 432,94.0495868 C432,86.1983471 428.868132,78.8705234 423.648352,73.6363636 C412.164835,62.1212121 393.895604,62.1212121 382.934066,73.6363636 L345.351648,111.322314 C340.131868,116.556474 337,123.884298 337,131.735537 C337,139.586777 340.131868,146.914601 345.351648,152.14876 C351.093407,156.859504 357.879121,160 365.708791,160 Z" id="Path"></path>
        </g>
    </g>
</svg>