<?xml version="1.0" encoding="UTF-8"?>
<svg width="870px" height="1470px" viewBox="0 0 870 1470" version="1.1" xmlns="http://www.w3.org/2000/svg" xmlns:xlink="http://www.w3.org/1999/xlink">
    <!-- Generator: Sketch 57.1 (83088) - https://sketch.com -->
    <title>doorbellIcon</title>
    <desc>Created with Sketch.</desc>
    <g id="Page-1" stroke="none" stroke-width="1" fill="none" fill-rule="evenodd">
        <g id="doorbellIcon" fill="#000000" fill-rule="nonzero">
            <path d="M779.428226,0 C604.296079,0 439.733978,77.1922371 327.671446,211.791517 C314.195889,227.979403 306.831923,248.364149 306.831923,269.448372 L306.831923,363.627897 L90.6218691,363.627897 C40.5769563,363.627897 0,404.097614 0,453.960302 L0,1016.0397 C0,1065.90239 40.5769563,1106.3721 90.6218691,1106.3721 L306.831923,1106.3721 L306.831923,1200.50167 C306.831923,1221.58589 314.195889,1241.97063 327.671446,1258.15852 C439.683883,1392.80776 604.245984,1470 779.428226,1470 C829.423044,1470 870,1429.48032 870,1379.61763 L870,90.2824417 C870,40.4197539 829.423044,0 779.428226,0 Z M306.882018,925.707294 L181.193643,925.707294 L181.193643,544.242744 L306.882018,544.242744 L306.882018,925.707294 Z M688.856452,1279.14282 C612.762135,1261.85575 543.079979,1222.83495 488.025566,1166.07743 L488.025566,303.922575 C543.079979,247.165047 612.762135,208.144246 688.856452,190.807219 L688.856452,1279.14282 Z" id="Shape"></path>
        </g>
    </g>
</svg>