<?xml version="1.0" encoding="utf-8"?>
<!-- Generator: Adobe Illustrator 24.1.2, SVG Export Plug-In . SVG Version: 6.00 Build 0)  -->
<svg version="1.1" id="Layer_1" xmlns="http://www.w3.org/2000/svg" xmlns:xlink="http://www.w3.org/1999/xlink" x="0px" y="0px"
	 viewBox="0 0 500 500" style="enable-background:new 0 0 500 500;" xml:space="preserve">
<style type="text/css">
	.st0{fill:#C1C1C0;}
</style>
<g>
	<path class="st0" d="M84.1,264.7c0.9,1.1,1.8,2.2,2.6,3.3c10.6,13.1,21.4,26.1,32.2,39.1c1.2,1.5,3.3,3.7,4.6,3.5
		c3.6-0.6,7.3-1.2,10.9-2.1c3.2-0.9,6.3-2.5,8.7-4.4c21.4-16.7,38.7-37.4,53-63.4c3.4-6.2,3.1-13.2,2.7-21.2v-0.9
		c-0.3-6.7,1.1-12.4,4.1-16.7c-3.4-4.9-6.8-9.9-10.2-14.8l20.2-14.4l-62.1-87L4.9,189.9l62.1,87L84.1,264.7z"/>
	<path class="st0" d="M147.3,309.4c-3.4,2.6-7.6,4.6-11.7,5.7c-6.9,1.9-8.1,3.8-5,10.5c12,25.9,32.1,43.5,57.1,56.2
		c2.5,1.3,4.9,2.5,7.7,3.9c-3.7,3.4-2.7,5.9,0.3,8.6c5.4,4.9,10.6,10.2,16,15.2c1.9,1.8,3.2,2.8,4.4,2.8c1.3,0,2.5-1,4.5-3.1
		c22.7-23.6,45.4-47.1,68.1-70.7c4-4.2,4-8.2,0-12.3c-2.6-2.7-5.3-5.2-8.5-8.3c1.6-0.9,2.5-1.5,3.4-2c28.3-13.6,54.6-30.5,76.7-52.7
		c41.8-42.1,61.6-65.9,102.8-108.5c2.1-2.2,3.9-4.9,1.9-7.5c-2-2.5-5-4.2-7.8-6c-1.6-1-3.8-1-5.3-2.1c-7.2-5.2-15-8-23.8-8
		c-0.7,0-1.5,0-2.2,0.1c-10.9,0.6-19.3,5.9-27.5,12.8c-30.1,25.2-42.8,23.8-80.7,34.4c-31.7,8.9-63.3,17.8-96.3,20.7
		c-11.1,1-16.4,8-15.9,19.2c0.4,8.7,1,17.5-3.5,25.7C188.1,269.4,170.2,291.5,147.3,309.4z"/>
	<path class="st0" d="M480.4,235.6c4.9-3.2,6.4-8.4,4.6-13.5c-1.7-4.9-5.8-7.6-11.4-7.8c-2.2,0.8-4.5,1.2-6.4,2.4
		c-22,13.8-44,27.6-65.9,41.5c-7,4.4-14.1,8.7-20.9,13.4c-4.5,3.1-5.7,9-3.4,13.8c2.4,5.2,6.4,7.4,12.2,5.7c4.2-1.2,8.3-3.2,12-5.4
		c5.4-3.3,10.8-6.7,16.2-10.1l39.3,65.4l38.4-23.1l-39.8-66.2C463.5,246.4,472,241.1,480.4,235.6z"/>
</g>
</svg>
