<?xml version="1.0" encoding="UTF-8"?>
<svg width="98px" height="111px" viewBox="0 0 98 111" version="1.1" xmlns="http://www.w3.org/2000/svg" xmlns:xlink="http://www.w3.org/1999/xlink">
    <title>forward</title>
    <g id="Page-1" stroke="none" stroke-width="1" fill="none" fill-rule="evenodd">
        <g id="forward" fill="#000000" fill-rule="nonzero">
            <path d="M94.5,49.45 L10.69,1.06 C8.48739422,-0.216444579 5.77087477,-0.219780505 3.56514065,1.05125057 C1.35940653,2.32228164 -7.39293538e-05,4.6742618 -7.39293538e-05,7.22 L-7.39293538e-05,103.79 C-0.0115960994,106.342049 1.34170159,108.705679 3.54844804,109.987615 C5.75519448,111.269551 8.47882061,111.274274 10.69,110 L94.31,61.68 C96.5167455,60.4091585 97.876762,58.0565199 97.876762,55.51 C97.876762,52.9634801 96.5167455,50.6108415 94.31,49.34 L10.5,1 C8.34379152,-0.245017847 5.6885394,-0.250989497 3.52675268,0.984317198 C1.36496597,2.21962389 0.0220596975,4.51025748 -7.39293538e-05,7 L-7.39293538e-05,104 C-7.39293538e-05,106.50047 1.33527762,108.810646 3.50094281,110.060545 C5.66660801,111.310443 8.33452935,111.310235 10.5,110.06 L94.5,61.56 C96.6588152,60.3077078 97.987597,58.0007401 97.987597,55.505 C97.987597,53.0092599 96.6588152,50.7022922 94.5,49.45 Z" id="Path" transform="translate(48.993762, 55.529921) rotate(180.000000) translate(-48.993762, -55.529921) "></path>
        </g>
    </g>
</svg>