<?xml version="1.0" encoding="UTF-8"?>
<svg width="512px" height="370px" viewBox="0 0 512 370" version="1.1" xmlns="http://www.w3.org/2000/svg" xmlns:xlink="http://www.w3.org/1999/xlink">
    <!-- Generator: Sketch 55 (78076) - https://sketchapp.com -->
    <title>Slice 1</title>
    <desc>Created with Sketch.</desc>
    <g id="Page-1" stroke="none" stroke-width="1" fill="none" fill-rule="evenodd">
        <g id="wireless" fill="#FFFFFF" fill-rule="nonzero">
            <g id="Group">
                <path d="M188.098,298.87 L255.985,369.774 L323.888,298.87 C306.245,281.996 282.312,271.653 255.985,271.653 C229.642,271.653 205.722,281.996 188.098,298.87 Z" id="Path"></path>
                <path d="M94.462,201.03 L148.787,257.778 C177.88,230.373 215.784,215.311 255.985,215.311 C296.202,215.311 334.075,230.373 363.183,257.778 L417.493,201.03 C375.417,161.188 318.56,136.814 255.985,136.814 C193.41,136.814 136.568,161.188 94.462,201.03 Z" id="Path"></path>
                <path d="M255.984,0.226 C156.801,0.226 66.65,39.068 0.012,102.316 L54.306,159.094 C79.976,134.72 109.411,115.47 141.942,101.721 C178.004,86.503 216.377,78.753 255.984,78.753 C295.576,78.753 333.949,86.503 370.025,101.721 C402.555,115.47 431.991,134.72 457.662,159.094 L511.987,102.316 C445.335,39.067 355.183,0.226 255.984,0.226 Z" id="Path"></path>
            </g>
        </g>
    </g>
</svg>