<?xml version="1.0" encoding="UTF-8"?>
<svg width="50px" height="90px" viewBox="0 0 50 90" version="1.1" xmlns="http://www.w3.org/2000/svg" xmlns:xlink="http://www.w3.org/1999/xlink">
    <!-- Generator: Sketch 55 (78076) - https://sketchapp.com -->
    <title>Slice 1</title>
    <desc>Created with Sketch.</desc>
    <g id="Page-1" stroke="none" stroke-width="1" fill="none" fill-rule="evenodd">
        <g id="bluetooth" fill="#FFFFFF" fill-rule="nonzero">
            <path d="M48.20808,21.76446 L27.31654,0.87243 C26.4448616,0.000683395457 25.126187,-0.24389404 23.99987,0.25728 C22.8402738,0.773269765 22.0931017,1.92353416 22.09309,3.19275 L22.09309,37.769 L6.008,21.6844 C5.42599852,21.1021434 4.63019801,20.7847938 3.80723679,20.806779 C2.98427556,20.8287642 2.20655386,21.18815 1.65647,21.80065 C0.604832402,23.0556009 0.705202046,24.9107281 1.8861,26.04489 L20.85119,45.01 L1.76678,64.09442 C1.13084447,64.7305898 0.813781997,65.6184552 0.902894961,66.5135446 C0.992007925,67.4086339 1.47789927,68.2165592 2.22678,68.71486 C3.45885568,69.4989196 5.07258584,69.3073892 6.0869,68.25671 L22.09309,52.251 L22.09309,86.91038 L22.09528,86.99288 C22.1284177,88.2281775 22.8943443,89.3249433 24.0426751,89.7814454 C25.191006,90.2379475 26.5008896,89.9663896 27.3731,89.091 L48.2081,68.25553 C49.4138352,67.0479805 49.4138352,65.0920795 48.2081,63.88453 L29.33358,45.01 L48.20808,26.1355 C49.4138418,24.9279459 49.4138418,22.9720141 48.20808,21.76446 Z M41.91072,66.07 L28.09172,79.88953 L28.09172,52.251 L41.91072,66.07 Z M28.09172,37.769 L28.09172,10.13046 L41.91072,23.95 L28.09172,37.769 Z" id="Shape"></path>
        </g>
    </g>
</svg>