<?xml version="1.0" encoding="UTF-8"?>
<svg width="196px" height="111px" viewBox="0 0 196 111" version="1.1" xmlns="http://www.w3.org/2000/svg" xmlns:xlink="http://www.w3.org/1999/xlink">
    <!-- Generator: Sketch 57.1 (83088) - https://sketch.com -->
    <title>reverse-icon</title>
    <desc>Created with Sketch.</desc>
    <g id="Page-1" stroke="none" stroke-width="1" fill="none" fill-rule="evenodd">
        <g id="reverse-icon" fill="#FFFFFF" fill-rule="nonzero">
            <g id="noun_play_2825916" transform="translate(49.000000, 55.500000) scale(-1, 1) translate(-49.000000, -55.500000) ">
                <path d="M94.5,49.45 L10.69,1.06 C8.48739422,-0.216444579 5.77087477,-0.219780505 3.56514065,1.05125057 C1.35940653,2.32228164 -0.000146922765,4.6742618 -0.000146922765,7.22 L-0.000146922765,103.79 C-0.0115960994,106.342049 1.34170159,108.705679 3.54844804,109.987615 C5.75519448,111.269551 8.47882061,111.274274 10.69,110 L94.31,61.68 C96.5167455,60.4091585 97.876762,58.0565199 97.876762,55.51 C97.876762,52.9634801 96.5167455,50.6108415 94.31,49.34 L10.5,1 C8.34379152,-0.245017847 5.6885394,-0.250989497 3.52675268,0.984317198 C1.36496597,2.21962389 0.0220596975,4.51025748 -0.000146922765,7 L-0.000146922765,104 C-0.000146922765,106.50047 1.33527762,108.810646 3.50094281,110.060545 C5.66660801,111.310443 8.33452935,111.310235 10.5,110.06 L94.5,61.56 C96.6588152,60.3077078 97.987597,58.0007401 97.987597,55.505 C97.987597,53.0092599 96.6588152,50.7022922 94.5,49.45 Z" id="Path"></path>
            </g>
            <g id="noun_play_2825916-copy" transform="translate(147.000000, 55.500000) scale(-1, 1) translate(-147.000000, -55.500000) translate(98.000000, 0.000000)">
                <path d="M94.5,49.45 L10.69,1.06 C8.48739422,-0.216444579 5.77087477,-0.219780505 3.56514065,1.05125057 C1.35940653,2.32228164 -0.000146922765,4.6742618 -0.000146922765,7.22 L-0.000146922765,103.79 C-0.0115960994,106.342049 1.34170159,108.705679 3.54844804,109.987615 C5.75519448,111.269551 8.47882061,111.274274 10.69,110 L94.31,61.68 C96.5167455,60.4091585 97.876762,58.0565199 97.876762,55.51 C97.876762,52.9634801 96.5167455,50.6108415 94.31,49.34 L10.5,1 C8.34379152,-0.245017847 5.6885394,-0.250989497 3.52675268,0.984317198 C1.36496597,2.21962389 0.0220596975,4.51025748 -0.000146922765,7 L-0.000146922765,104 C-0.000146922765,106.50047 1.33527762,108.810646 3.50094281,110.060545 C5.66660801,111.310443 8.33452935,111.310235 10.5,110.06 L94.5,61.56 C96.6588152,60.3077078 97.987597,58.0007401 97.987597,55.505 C97.987597,53.0092599 96.6588152,50.7022922 94.5,49.45 Z" id="Path"></path>
            </g>
        </g>
    </g>
</svg>