<?xml version="1.0" encoding="UTF-8"?>
<svg width="70px" height="58px" viewBox="0 0 70 58" version="1.1" xmlns="http://www.w3.org/2000/svg" xmlns:xlink="http://www.w3.org/1999/xlink">
    <title>Speaker icon</title>
    <g id="Page-1" stroke="none" stroke-width="1" fill="none" fill-rule="evenodd">
        <g id="Speaker-icon" fill-rule="nonzero">
            <g id="Group">
                <path d="M7.4,45 L15.7,45 C16.5,45 17.3,44.9 18,44.6 C18.8,45.8 19.9,46.8 21,47.5 L35.4,56.7 C36.5,57.4 37.5,57.7 38.6,57.7 C40.7,57.7 43,56.1 43,52.5 L43,5.4 C43,1.8 40.7,0.2 38.6,0.2 C37.6,0.2 36.5,0.5 35.4,1.2 L21,10.4 C19.9,11.1 18.9,12.1 18,13.3 C17.3,13.1 16.5,12.9 15.7,12.9 L7.4,12.9 C3.4,12.9 0.1,16.2 0.1,20.2 L0.1,37.5 C0.1,41.7 3.4,45 7.4,45 Z" id="Path" fill="#FFFFFF"></path>
                <path d="M4.1,20.4 C4.1,18.6 5.6,17.1 7.4,17.1 L15.7,17.1 C15.9,17.1 16,17.1 16.2,17.1 C15.8,18.2 15.6,19.3 15.6,20.4 L15.6,37.7 C15.6,38.8 15.8,39.9 16.2,41 C16,41 15.9,41 15.7,41 L7.4,41 C5.6,41 4.1,39.5 4.1,37.7 L4.1,20.4 Z" id="Path" fill-opacity="0" fill="#000000"></path>
                <path d="M23.1,13.9 L37.5,4.7 C38.1,4.3 38.4,4.3 38.5,4.3 C38.8,4.3 38.9,5 38.9,5.5 L38.9,52.6 C38.9,53.1 38.8,53.8 38.5,53.8 C38.4,53.8 38,53.8 37.5,53.4 L23.1,44.2 C22.1,43.6 21.2,42.5 20.6,41.2 C20.6,41.2 20.6,41.2 20.6,41.2 C20,40 19.6,38.8 19.6,37.7 L19.6,20.4 C19.6,19.3 20,18 20.6,16.9 C20.6,16.9 20.6,16.9 20.6,16.9 C21.2,15.6 22.1,14.5 23.1,13.9 Z" id="Path" fill-opacity="0" fill="#000000"></path>
                <path d="M53.3,40.6 C53.7,41 54.2,41.2 54.7,41.2 C55.2,41.2 55.7,41 56.1,40.6 C62.5,34.2 62.5,23.8 56.1,17.4 C55.3,16.6 54.1,16.6 53.3,17.4 C52.5,18.2 52.5,19.4 53.3,20.2 C58.1,25 58.1,32.9 53.3,37.7 C52.5,38.5 52.5,39.8 53.3,40.6 Z" id="Path" fill="#FFFFFF"></path>
                <path d="M58.3,47.4 C57.5,48.2 57.5,49.4 58.3,50.2 C58.7,50.6 59.2,50.8 59.7,50.8 C60.2,50.8 60.7,50.6 61.1,50.2 C72.8,38.5 72.8,19.4 61.1,7.7 C60.3,6.9 59.1,6.9 58.3,7.7 C57.5,8.5 57.5,9.7 58.3,10.5 C68.5,20.7 68.5,37.3 58.3,47.4 Z" id="Path" fill="#FFFFFF"></path>
            </g>
        </g>
    </g>
</svg>