<?xml version="1.0" encoding="UTF-8"?>
<svg width="85px" height="39px" viewBox="0 0 85 39" version="1.1" xmlns="http://www.w3.org/2000/svg" xmlns:xlink="http://www.w3.org/1999/xlink">
    <title>usbc icon</title>
    <g id="Page-1" stroke="none" stroke-width="1" fill="none" fill-rule="evenodd">
        <g id="usbc-icon" fill="#000000" fill-rule="nonzero">
            <g id="Group" transform="translate(0.508120, 0.150050)">
                <path d="M64.7477475,0.72689387 C65.4404762,0.74103119 66.1308486,0.78462126 66.8176868,0.8718014 C68.3032835,1.060299 69.765318,1.43493798 71.1590221,1.98511535 C72.8566786,2.65545994 74.4518396,3.58498873 75.8726402,4.73011165 C77.284016,5.8669878 78.5245658,7.21474564 79.5389185,8.71683589 C80.6098205,10.3002157 81.4262508,12.0520653 81.9493316,13.891095 C82.4712343,15.7265904 82.6974315,17.6421973 82.6243886,19.5483792 C82.5478115,21.5829752 82.1260481,23.6010776 81.3791264,25.4943004 C80.5485588,27.5984049 79.3209682,29.5399301 77.7800003,31.1939966 C76.1942643,32.8975436 74.2810136,34.2924259 72.1721967,35.278504 C70.6194477,36.0030416 68.9642032,36.5060946 67.270081,36.7652788 C66.4336229,36.8925147 65.5924524,36.9561326 64.7477475,36.9726261 C49.3180408,37.0704093 33.8883342,36.9738042 18.4598056,36.9738042 C17.768255,36.9690918 17.0790607,36.9337485 16.3934007,36.8559932 C14.9019134,36.6851673 13.4339883,36.3282 12.0320374,35.7945161 C10.3237779,35.1453775 8.71683589,34.2335204 7.2807198,33.104891 C5.74210814,31.894972 4.40024085,30.4364719 3.32344831,28.8012552 C2.31262993,27.2661778 1.53743355,25.5767681 1.03438058,23.808425 C0.51247785,21.9741077 0.28628073,20.0573227 0.35932355,18.1511408 C0.4359007,16.1177229 0.85766408,14.0996205 1.60458582,12.2052196 C2.43515337,10.1022933 3.66274399,8.16076797 5.20371187,6.50552342 C6.78944793,4.80197636 8.70152046,3.40709412 10.8115155,2.42219416 C12.3642645,1.6964784 14.019509,1.19460354 15.7136312,0.93541934 C16.5500893,0.80700535 17.3912598,0.74338741 18.2359647,0.72689387 C33.7398923,0.62911074 49.2438199,0.62911074 64.7477475,0.72689387 Z M18.4798335,6.97558931 C17.9190531,6.97912364 17.3618071,7.01328883 16.8069173,7.09104409 C15.6959595,7.24655461 14.608564,7.56228809 13.5871426,8.02410721 C12.1957947,8.65321795 10.9305046,9.5544721 9.87609613,10.6607174 C8.85349665,11.7327975 8.03353209,12.9945533 7.47275173,14.3658733 C6.96969876,15.5958202 6.67870559,16.9094128 6.61155332,18.2371428 C6.54322294,19.5860788 6.70108968,20.9444396 7.08633165,22.2391825 C7.42916166,23.391374 7.94988628,24.4881945 8.62258709,25.4836974 C9.96092005,27.4641003 11.8953767,29.0227398 14.1196484,29.9004318 C15.0291493,30.2597554 15.9845965,30.5048022 16.9553591,30.6285038 C17.4065752,30.6850531 17.8601476,30.7145058 18.3148981,30.7227526 C33.7658107,30.8205357 49.2179015,30.8205357 64.667636,30.7227526 C65.2225258,30.7121496 65.7750594,30.6709157 66.3240587,30.5860918 C67.4314821,30.4176221 68.5129871,30.0889294 69.5273398,29.6153292 C70.9104409,28.9685468 72.1651281,28.0531553 73.2053992,26.9351289 C74.2150395,25.8512677 75.0208667,24.5789089 75.5651535,23.2005202 C76.0540692,21.9611485 76.3285688,20.6416653 76.3792275,19.310401 C76.4298863,17.9626432 76.255526,16.6089948 75.8537905,15.3201424 C75.4685485,14.0831269 74.8783154,12.9120856 74.113722,11.8647458 C72.7907045,10.0504564 70.954031,8.6237652 68.8640638,7.7990882 C67.9545629,7.43976465 66.9991157,7.19471777 66.0283531,7.07219433 C65.5771369,7.01446694 65.1235646,6.9861923 64.667636,6.97676742 C49.2720945,6.87898429 33.8753749,6.97558931 18.4798335,6.97558931 Z" id="Shape"></path>
            </g>
            <g id="Group" transform="translate(14.510818, 15.000000)">
                <path d="M51.251,0.884 C51.33,0.893 51.41,0.899 51.489,0.912 C51.647,0.936 51.802,0.972 51.955,1.021 C52.488,1.19 52.972,1.503 53.345,1.921 C53.557,2.159 53.733,2.43 53.863,2.722 C53.994,3.013 54.079,3.324 54.116,3.642 C54.171,4.118 54.115,4.605 53.953,5.056 C53.791,5.507 53.524,5.919 53.179,6.252 C52.949,6.473 52.685,6.659 52.398,6.801 C52.112,6.942 51.804,7.04 51.489,7.088 C51.278,7.121 51.224,7.117 51.012,7.125 L3.967,7.125 C3.887,7.122 3.807,7.122 3.727,7.116 C3.568,7.104 3.41,7.079 3.255,7.043 C2.71,6.915 2.203,6.64 1.8,6.252 C1.512,5.975 1.278,5.643 1.115,5.278 C0.919,4.841 0.826,4.359 0.844,3.88 C0.862,3.401 0.992,2.928 1.221,2.507 C1.374,2.227 1.57,1.97 1.8,1.748 C2.03,1.527 2.294,1.341 2.58,1.199 C2.866,1.058 3.174,0.96 3.49,0.912 C3.7,0.879 3.754,0.883 3.967,0.875 L51.012,0.875 C51.091,0.878 51.171,0.881 51.251,0.884 Z" id="Path"></path>
            </g>
        </g>
    </g>
</svg>