<?xml version="1.0" encoding="utf-8"?>
<!-- Generator: Adobe Illustrator 24.1.2, SVG Export Plug-In . SVG Version: 6.00 Build 0)  -->
<svg version="1.1" id="Layer_1" xmlns="http://www.w3.org/2000/svg" xmlns:xlink="http://www.w3.org/1999/xlink" x="0px" y="0px"
	 viewBox="0 0 500 500" style="enable-background:new 0 0 500 500;" xml:space="preserve">
<style type="text/css">
	.st0{fill:#0E2B4C;}
	.st1{fill:#4E330C;}
</style>
<g>
	<path d="M398.8,320.7c-7.1,4.3-14.3,8.4-21.2,13c-4.6,3.1-5.9,8.9-3.7,13.8c2.3,5.2,6.3,7.5,12.1,5.9c4.2-1.1,8.3-3,12.1-5.2
		c5.7-3.3,11.3-6.7,16.9-10.1l13,21.6l38.4-23.1l-13-21.6c8.4-5,16.8-10,25.1-15.3c4.9-3.1,6.5-8.2,4.8-13.5c-1.6-5-5.7-7.7-11.3-8
		c-2.2,0.7-4.5,1.1-6.5,2.3c-10,6-20,12-30,18c-9.4,5.8-18.7,11.4-28.2,17C404.5,317.3,401.7,319,398.8,320.7z"/>
	<path class="st0" d="M89.6,280.1c5.5,8.6,11,17.2,16.5,25.7c3.1-2.4,6.7-2.5,8-2.5c1.1,0,2.4,0.1,4,0.3c1.1,0.1,2.2,0.2,3.3,0.2
		c2.5,0,4.9-0.3,7-0.9c26.1-7.5,49.9-20.2,72.9-38.9c5.5-4.5,7.8-11.1,10.5-18.6l0.3-0.9c1.2-3.3,2.6-6,4.2-8.2
		c-0.5-0.9-0.9-1.6-1.1-2c-3.5-6.6-7-13.3-10.5-19.9l18.4-10.5l-51.4-89.9L16,202.9l51.4,89.9L89.6,280.1z"/>
	<path class="st1" d="M205.5,269.2c-22.5,18.3-47.3,32.2-75.3,40.2c-2.8,0.8-5.9,1.2-8.9,1.2c-1.4,0-2.8-0.1-4.1-0.2
		c-1.2-0.1-2.2-0.2-3.2-0.2c-4.5,0-5.7,2-5.4,8.1c1.4,28.5,13.5,52.3,31.8,73.5c1.8,2.1,3.6,4.1,5.7,6.5c-4.7,1.7-4.7,4.5-2.9,8.1
		c3.2,6.6,6.1,13.4,9.1,20.1c1.4,3.1,2.3,4.4,4,4.4c1,0,2.4-0.5,4.3-1.3c29.9-13.3,59.8-26.7,89.6-40c5.3-2.4,6.8-6.1,4.7-11.4
		c-1.4-3.5-3-6.9-4.7-10.9c1.8-0.3,2.9-0.5,3.9-0.6c31.3-2,60.7-11.7,89.5-24c52-26.4,83.6-45.9,128.4-75.3c2.8-1.2,5.5-3.1,4.6-6.2
		c-0.9-3.1-3.1-5.8-5-8.5c-1.1-1.5-3.2-2.3-4.2-3.9c-5.1-8.1-11.9-13.9-21.1-17.1c-4-1.4-7.9-1.9-11.7-1.9c-6.2,0-12.3,1.5-18.5,3.5
		c-19.4,6.3-34.5,15.3-46.6,17.6c-0.4,0.1-0.8,0.1-1.2,0.1c-4.2,0-7.6-3.9-15.2-3.9c-7.4,0-9,4.7-17.2,4.7c-0.9,0-1.8-0.1-2.8-0.2
		c-32.7-3.6-61.1-6.8-92.8-16.4c-2.3-0.7-4.4-1-6.4-1c-7.3,0-12.6,4.6-15.5,12.9C215.5,255,212.8,263.3,205.5,269.2z"/>
	<g>
		<path d="M318.6,178.6c6.5,4,13.8,0.8,15.1-6.8c1-6.1,1.7-12.3,2.5-18.5c0,0,0,0,0,0c0.8-6.3,1.6-12.6,2.5-18.9
			c0.8-5.9-3.6-9.5-7.6-10.4c-4.8-1.1-9.2,1.2-11.1,5.9c-0.7,1.6-1,3.4-1.2,5.2c-1.2,8.8-2.4,17.6-3.5,26.4
			c-0.3,2.6-0.8,5.3-0.9,7.9C314.1,173.2,315.2,176.4,318.6,178.6z"/>
		<path d="M318.6,208.1c6,0.8,10.8-2.9,11.5-8.9c0.7-5.4-3.1-10.4-8.4-11.1c-5.6-0.8-11.2,3.4-11.8,8.9
			C309.2,201.9,313.5,207.3,318.6,208.1z"/>
		<path d="M312.1,232.6c40.4,7.1,76.2-20.8,80.4-57.3c5.7-36.2-19.8-71.5-58.5-76.8c-37.8-5.1-71.2,18.7-77.7,55.5
			C249.5,192.2,276.6,226.3,312.1,232.6z M271.1,146.6c5.5-15.1,16.1-25.6,30.4-31.8c13.2-5.7,27.1-6.5,41.1-1.6
			c11.3,4,20.4,10.6,27.5,20.1c8.8,11.8,12.2,25.3,10.5,39.8c-1.5,12.9-7.7,23.9-17.1,32.8c-8.5,8-18.6,13.3-30.2,14.8
			c-5.4,0.7-10.9,0.4-16.3,0.5c-19.6-3.2-34.4-13.3-43.3-30.7C266.5,176.5,265.6,161.7,271.1,146.6z"/>
		<path d="M399.7,145.2c4.7,16,4.5,31.9-1.6,47.4c-4.1,10.3-10.5,19.2-18.1,27.1c-1.6,1.7-3.2,3.4-5.1,5.4c3.1,3.4,5.9,6.5,9,9.9
			c20.1-18.2,32.5-39.6,33.3-66.4c0.7-20.9-9.5-46.8-17.9-54.2c-3.4,2.5-6.9,4.9-10.4,7.4c1.2,2.1,2.1,3.8,3,5.4
			C395.1,133,397.8,138.9,399.7,145.2z"/>
		<path d="M273.7,106.8c-2.5-3.8-4.9-7.4-8.6-10.7c-19.7,17.8-31.7,38.9-33.1,65.3c-1,18.2,9.5,49.4,18.1,55.4
			c3.3-2.2,6.8-4.4,10.6-6.8C237.6,171.7,242.1,137.6,273.7,106.8z"/>
	</g>
</g>
</svg>
