<?xml version="1.0" encoding="utf-8"?>
<!-- Generator: Adobe Illustrator 24.1.2, SVG Export Plug-In . SVG Version: 6.00 Build 0)  -->
<svg version="1.1" id="Layer_1" xmlns="http://www.w3.org/2000/svg" xmlns:xlink="http://www.w3.org/1999/xlink" x="0px" y="0px"
	 viewBox="0 0 500 500" style="enable-background:new 0 0 500 500;" xml:space="preserve">
<style type="text/css">
	.st0{fill:#C1C1C0;}
</style>
<g>
	<path class="st0" d="M345.9,309.5c-54.5,13-109,26-163.5,39.1c-22.4,5.4-22.6,5.8-17,28c0.3,1.2,0,2.6,0,5
		c-24.3,0.1-16,18.2-16,32.1c-23.1-0.5-16.7,15.7-17,27.6c-17.4,7.8-21.7,24.4-14.2,53.7c111.3,0,222.6,0,333.7,0
		c0.6-1.6,1.2-2.4,1.2-3.3c0.1-9.8,0.3-19.5,0.2-29.3c-0.1-16-4.5-19.6-20.2-17.7c-5.2,0.6-10.4,1.3-15.6,1.9l-1.8-14.6
		c6.9-0.9,13.8-1.8,20.7-2.7c0-5.9,0.1-9.6,0-13.3c-0.8-21.1-4.5-24.2-25.3-20.7c-4.7,0.8-9.5,1.7-14.2,2.5l-2.6-14.5
		c7.6-1.4,15.1-2.9,22.7-4.3c-1.1-6.4-2-10.5-2.5-14.6c-2.6-19.5-5.8-21.7-25.5-17.3c-9,2-18,4-27,6l-3-14.5
		c6.8-1.6,13.6-3.1,20.4-4.7C374.6,302.9,374.3,302.7,345.9,309.5z M366.6,408.8v28H246.4l21.1,21.1l-19.8,19.8l-54.9-54.9
		l54.9-54.9l19.8,19.8l-21.1,21.1H366.6z"/>
	<path class="st0" d="M163.9,295.8c8.2-14.1,12.3-31.4,12.3-51.7c0-8-1-16.5-2.9-25.3c-1.9-8.9-5.6-17.1-10.9-24.7
		c-6.7-9.4-15.4-15.9-26.1-19.4c-6.3-2.1-14.2-3.2-23.7-3.3h-66v153.1h66C135.7,324.4,152.8,314.9,163.9,295.8z M138.8,275.5
		c-6,14.9-16.5,22.3-31.6,22.3H77.6v-99.9h29.5c14.6,0,24.3,4.2,29.2,12.5c4.9,8.3,7.3,20.3,7.3,35.9
		C143.7,257.6,142,267.3,138.8,275.5z"/>
	<g>
		<path class="st0" d="M244.9,187.5c2.5-0.9,4.8-1.7,6.9-2.4c8.6-3.1,10.3-11.7,7.8-20.8c-3.5-12.7-2.5-25.1,3.3-37.2c0,0,0,0,0-0.1
			c2-4.1,3.9-8.5,4.5-12.9c5.6-39.4-10.6-68.8-42.2-91s-64.9-24.7-97.3-4c-12.3,7.8-22.6,21.1-30,34c-12.6,22-8.3,49.5,19.1,59.1
			c22.8,8,36.2,19.5,46.1,33.3c7.8,10.9,13.5,23.2,20,36.5c5.7,11.6,13.9,17.2,26.5,15.9L244.9,187.5
			C244.9,187.6,244.9,187.5,244.9,187.5z M231.7,77.6c-1.3,0.6-2.7,0.9-4,0.9c-3.7,0-7.3-2.1-8.9-5.8c-7.1-15.6-24.1-27.2-43.5-29.7
			c-5.4-0.7-9.2-5.6-8.5-11s5.6-9.2,11-8.5c26.3,3.4,48.9,19.1,58.8,41.1C238.8,69.6,236.7,75.4,231.7,77.6z"/>
		<path class="st0" d="M304.7,270.8c-11.2-6.4-26.3-6-42.6-9c-4.4-18.9-8.9-38.8-13.6-59.2l-30,8.8c4.7,20.5,9.5,41,14.2,61.5
			c-39,14.5-46.1,26.2-33.5,56.7c39.7-9.2,79.6-18.5,123.3-28.6C315.9,289.3,312.9,275.6,304.7,270.8z"/>
	</g>
</g>
</svg>
