<?xml version="1.0" encoding="utf-8"?>
<!-- Generator: Adobe Illustrator 24.1.2, SVG Export Plug-In . SVG Version: 6.00 Build 0)  -->
<svg version="1.1" id="Layer_1" xmlns="http://www.w3.org/2000/svg" xmlns:xlink="http://www.w3.org/1999/xlink" x="0px" y="0px"
	 viewBox="0 0 500 500" style="enable-background:new 0 0 500 500;" xml:space="preserve">
<style type="text/css">
	.st0{fill:#EC1E24;}
	.st1{fill:#FFFFFF;}
</style>
<g>
	<polygon class="st0" points="166.8,313.6 333.2,313.6 250,169.6 	"/>
	<path class="st0" d="M106,348.8H394L250,99.3L106,348.8z M259.1,143.2l101.4,175.7c1.9,3.3,1.9,7.3,0,10.5
		c-1.9,3.3-5.4,5.3-9.1,5.3H148.6c-3.8,0-7.2-2-9.1-5.3c-1.9-3.3-1.9-7.3,0-10.5l101.4-175.7c1.9-3.3,5.4-5.3,9.1-5.3
		S257.2,140,259.1,143.2z"/>
	<path class="st0" d="M495,250C495,114.7,385.3,5,250,5C114.7,5,5,114.7,5,250c0,135.3,109.7,245,245,245
		C385.3,495,495,385.3,495,250z M421.4,364.6c-1.9,3.3-5.4,5.3-9.1,5.3H87.7c-3.8,0-7.2-2-9.1-5.3c-1.9-3.3-1.9-7.3,0-10.5
		L240.9,72.9c1.9-3.3,5.4-5.3,9.1-5.3s7.2,2,9.1,5.3L421.4,354C423.3,357.3,423.3,361.3,421.4,364.6z"/>
	<path class="st1" d="M259.1,72.9c-1.9-3.3-5.4-5.3-9.1-5.3s-7.2,2-9.1,5.3L78.6,354c-1.9,3.3-1.9,7.3,0,10.5
		c1.9,3.3,5.4,5.3,9.1,5.3h324.6c3.8,0,7.2-2,9.1-5.3c1.9-3.3,1.9-7.3,0-10.5L259.1,72.9z M106,348.8L250,99.3l144,249.5H106z"/>
	<path class="st1" d="M240.9,143.2L139.4,318.9c-1.9,3.3-1.9,7.3,0,10.5c1.9,3.3,5.4,5.3,9.1,5.3h202.9c3.8,0,7.2-2,9.1-5.3
		c1.9-3.3,1.9-7.3,0-10.5L259.1,143.2c-1.9-3.3-5.4-5.3-9.1-5.3S242.8,140,240.9,143.2z M333.2,313.6H166.8L250,169.6L333.2,313.6z"
		/>
</g>
</svg>
