<?xml version="1.0" encoding="utf-8"?>
<!-- Generator: Adobe Illustrator 24.1.2, SVG Export Plug-In . SVG Version: 6.00 Build 0)  -->
<svg version="1.1" id="Layer_1" xmlns="http://www.w3.org/2000/svg" xmlns:xlink="http://www.w3.org/1999/xlink" x="0px" y="0px"
	 viewBox="0 0 500 500" style="enable-background:new 0 0 500 500;" xml:space="preserve">
<style type="text/css">
	.st0{fill:#AEA48D;}
	.st1{fill:#231F20;}
	.st2{fill:none;}
</style>
<g>
	<path class="st0" d="M43.8,495c108.5,0,217.3,0,326,0c7.3-28.3,3.2-44.5-13.4-52.2l-24.6,1.2l-0.7-13.7l25.3-1.2
		c-0.2-7.6-2.9-13.8-17.1-13.5c0,0,0-0.1,0-0.1l-18.5-0.6l0.4-13.7l19.4,0.6c0.7-9.4-0.8-17.5-16.8-17.6c0-0.1,0-0.1,0-0.2
		l-19.6-2.7l1.8-13.6l19.9,2.7c2.7-13-0.4-14.1-18.7-18.5c-53.2-12.8-106.5-25.4-159.7-38.2c-27.8-6.6-28-6.5-32.8,23.9l-2.2,14.5
		c-2.4-0.5-4.8-1-7.1-1.6c-19.3-4.3-22.4-2.2-24.9,16.9c-0.5,4-1.4,8-2.5,14.3l-3.3,14.8c-12.4-0.8-15,4.3-15.7,21.3
		c-0.1,3.6,0,7.2,0,13v14.7c-12.6-0.9-16.3,3.2-16.4,17.6c0,9.5,0.1,19.1,0.2,28.6C42.6,492.6,43.2,493.4,43.8,495z M240.5,370.8
		l53.7,53.7l-53.7,53.7l-19.4-19.4l20.6-20.6H124.4v-27.4h117.4l-20.6-20.6L240.5,370.8z"/>
	<path class="st1" d="M335.8,178.8v149.6h30.5v-58.6h30.5c8.7,0,14.6,1.6,17.8,4.8c3.2,3.2,4.8,9.5,4.9,19.1l0.2,13.9
		c0.1,4.4,0.5,8.7,1.3,12.9c0.4,2,1.1,4.7,2,8h34.5v-3.8c-3-1.8-4.9-4.7-5.8-8.5c-0.6-2.4-0.8-7.1-0.8-13.9v-10
		c0-10.5-1.4-18.3-4.3-23.4c-2.9-5.1-7.8-9-14.7-11.8c8.3-2.8,14.2-7.7,17.8-14.6c3.6-6.9,5.4-13.8,5.4-21c0-5.9-0.9-11.1-2.8-15.7
		c-1.8-4.6-4.4-8.8-7.5-12.6c-3.8-4.6-8.5-8.1-14-10.5c-5.5-2.4-13.4-3.7-23.6-3.9H335.8z M423.9,225.6c0,8.4-3,14-8.9,16.8
		c-3.3,1.6-8.4,2.4-15,2.4h-33.6v-40.2h34.5c6.4,0,11.2,0.9,14.5,2.6C421,210.5,423.9,216.6,423.9,225.6z"/>
	<path class="st2" d="M262.4,24c-5.2-0.9-10.2,2.6-11.1,7.8c-0.9,5.2,2.6,10.2,7.8,11.1c15.3,2.7,34.1,14.8,38.7,32
		c1.2,4.3,5,7.1,9.2,7.1c0.8,0,1.7-0.1,2.5-0.3c5.1-1.4,8.1-6.6,6.8-11.7C309.2,43.6,283.4,27.7,262.4,24z"/>
	<path class="st0" d="M229.3,267.2c-16,3-30.8,2.5-41.7,8.8c-8,4.6-11,18.1-17.2,29.5c42.7,9.9,81.7,18.9,120.4,27.9
		c12.3-29.8,5.4-41.2-32.8-55.4c4.6-19.8,9.1-39.6,13.7-59.4l-29.9-6.1C237.6,231.4,233.4,249.7,229.3,267.2z"/>
	<path class="st1" d="M333.5,51.8c-17.9-33.2-45.8-50-83.1-46.2C236.1,7,221.4,14,209.2,22c-20.7,13.6-29,39.5-9.3,60
		c16.3,16.9,22.9,32.7,25.6,48.9c2.1,13,1.7,26.4,1.5,41c-0.2,12.6,4.6,21.1,16.1,25.6l32.2,6.5c0,0,0,0,0-0.1
		c3.8,0.4,7.4,0.7,10.4,0.8c8.9,0.2,14.1-5.7,15.9-14.7c2.5-12.6,8.8-23,19.2-31c0.6-0.4,1.1-0.9,1.7-1.4c3-2.4,5.9-4.9,8-8
		C352.5,117.8,351.4,85,333.5,51.8z M309.6,81.6c-0.8,0.2-1.7,0.3-2.5,0.3c-4.2,0-8.1-2.8-9.2-7.1c-4.6-17.2-23.4-29.3-38.7-32
		c-5.2-0.9-8.7-5.9-7.8-11.1c0.9-5.2,5.9-8.7,11.1-7.8c21,3.7,46.8,19.7,53.9,45.9C317.7,75,314.7,80.3,309.6,81.6z"/>
</g>
</svg>
