<?xml version="1.0" encoding="utf-8"?>
<!-- Generator: Adobe Illustrator 24.1.2, SVG Export Plug-In . SVG Version: 6.00 Build 0)  -->
<svg version="1.1" id="Layer_1" xmlns="http://www.w3.org/2000/svg" xmlns:xlink="http://www.w3.org/1999/xlink" x="0px" y="0px"
	 viewBox="0 0 500 500" style="enable-background:new 0 0 500 500;" xml:space="preserve">
<path d="M250,7c32.8,0,64.6,6.4,94.6,19.1c28.9,12.2,54.9,29.8,77.2,52.1c22.3,22.3,39.8,48.3,52.1,77.2
	c12.7,30,19.1,61.8,19.1,94.6s-6.4,64.6-19.1,94.6c-12.2,28.9-29.8,54.9-52.1,77.2c-22.3,22.3-48.3,39.8-77.2,52.1
	c-30,12.7-61.8,19.1-94.6,19.1s-64.6-6.4-94.6-19.1c-28.9-12.2-54.9-29.8-77.2-52.1c-22.3-22.3-39.8-48.3-52.1-77.2
	C13.4,314.6,7,282.8,7,250s6.4-64.6,19.1-94.6c12.2-28.9,29.8-54.9,52.1-77.2c22.3-22.3,48.3-39.8,77.2-52.1
	C185.4,13.4,217.2,7,250,7 M250,0C111.9,0,0,111.9,0,250s111.9,250,250,250s250-111.9,250-250S388.1,0,250,0L250,0z"/>
<path d="M250,65.8c-19.7,0-31.2,13.8-31.2,13.8L250,7l31.2,72.7C281.2,79.7,269.2,65.8,250,65.8z"/>
</svg>
