<?xml version="1.0" encoding="UTF-8"?>
<svg width="98px" height="90px" viewBox="0 0 98 90" version="1.1" xmlns="http://www.w3.org/2000/svg" xmlns:xlink="http://www.w3.org/1999/xlink">
    <!-- Generator: Sketch 57.1 (83088) - https://sketch.com -->
    <title>icon-clockwise</title>
    <desc>Created with Sketch.</desc>
    <g id="Page-1" stroke="none" stroke-width="1" fill="none" fill-rule="evenodd">
        <g id="icon-clockwise" fill="#4A4A4A" fill-rule="nonzero">
            <path d="M98,76 C98,77.7 96.7,79 95,79 L73,79 C71.3,79 70,77.7 70,76 L70,54 C70,52.3 71.3,51 73,51 C74.7,51 76,52.3 76,54 L76,68.6 C81.1,61.8 84,53.6 84,45 C84,23.5 66.5,6 45,6 C23.5,6 6,23.5 6,45 C6,66.5 23.5,84 45,84 C46.7,84 48,85.3 48,87 C48,88.7 46.7,90 45,90 C20.2,90 0,69.8 0,45 C0,20.2 20.2,0 45,0 C69.8,0 90,20.2 90,45 C90,55.2 86.5,65.1 80.2,73 L95,73 C96.7,73 98,74.3 98,76 Z" id="Path"></path>
        </g>
    </g>
</svg>