<?xml version="1.0" encoding="UTF-8"?>
<svg width="306px" height="508px" viewBox="0 0 306 508" version="1.1" xmlns="http://www.w3.org/2000/svg" xmlns:xlink="http://www.w3.org/1999/xlink">
    <!-- Generator: Sketch 57.1 (83088) - https://sketch.com -->
    <title>batteryChargeIcon</title>
    <desc>Created with Sketch.</desc>
    <g id="Page-1" stroke="none" stroke-width="1" fill="none" fill-rule="evenodd">
        <g id="batteryChargeIcon" fill="#000000" fill-rule="nonzero">
            <path d="M280,76.2 L239.4,76.2 C233.8,76.2 229.2,71.7 229.2,66 L229.2,10.2 C229.2,4.5 224.7,0 219,0 L87,0 C81.4,0 76.8,4.5 76.8,10.2 L76.8,66 C76.8,71.6 72.3,76.2 66.6,76.2 L26,76.2 C12,76.2 0.6,87.6 0.6,101.6 L0.6,482.6 C0.6,496.6 12,508 26,508 L280,508 C294,508 305.4,496.6 305.4,482.6 L305.4,101.6 C305.4,87.6 294,76.2 280,76.2 Z M228,269.2 L146.1,426.1 C141,435.1 127.3,431.5 127.3,421.1 L127.3,314.9 C127.3,309.3 122.8,304.8 117.2,304.8 L87.1,304.8 C79.4,304.8 74.5,296.4 78.4,289.6 L158.9,131.6 C164,122.6 177.7,126.2 177.7,136.6 L177.7,243.9 C177.7,249.5 182.2,254 187.8,254 L219.4,254 C227,254.1 231.9,262.5 228,269.2 Z" id="Shape"></path>
        </g>
    </g>
</svg>