<?xml version="1.0" encoding="UTF-8"?>
<svg width="94px" height="94px" viewBox="0 0 94 94" version="1.1" xmlns="http://www.w3.org/2000/svg" xmlns:xlink="http://www.w3.org/1999/xlink">
    <!-- Generator: Sketch 57.1 (83088) - https://sketch.com -->
    <title>cancelIcon</title>
    <desc>Created with Sketch.</desc>
    <g id="Page-1" stroke="none" stroke-width="1" fill="none" fill-rule="evenodd">
        <g id="cancelIcon" fill="#000000" fill-rule="nonzero">
            <path d="M47,0.75 C21.498,0.75 0.75,21.498 0.75,47 C0.75,72.502 21.498,93.25 47,93.25 C72.502,93.25 93.25,72.502 93.25,47 C93.25,21.498 72.502,0.75 47,0.75 Z M67.419,60.754 C69.513,62.848 69.513,66.255 67.419,68.349 C66.404,69.363 65.056,69.922 63.621,69.922 C62.187,69.922 60.839,69.363 59.824,68.349 L46.999,55.524 L34.175,68.349 C33.16,69.363 31.812,69.922 30.378,69.922 C28.943,69.922 27.595,69.363 26.58,68.349 C24.486,66.255 24.486,62.849 26.58,60.754 L39.404,47.93 L26.58,35.105 C24.486,33.011 24.486,29.605 26.58,27.511 C27.595,26.497 28.943,25.938 30.378,25.938 C31.812,25.938 33.16,26.497 34.175,27.51 L46.999,40.335 L59.824,27.51 C60.839,26.496 62.187,25.937 63.622,25.937 C65.056,25.937 66.404,26.496 67.419,27.509 C69.513,29.603 69.513,33.01 67.419,35.104 L54.594,47.93 L67.419,60.754 Z" id="Shape"></path>
        </g>
    </g>
</svg>