<?xml version="1.0" encoding="UTF-8"?>
<svg width="78px" height="78px" viewBox="0 0 78 78" version="1.1" xmlns="http://www.w3.org/2000/svg" xmlns:xlink="http://www.w3.org/1999/xlink">
    <!-- Generator: Sketch 57.1 (83088) - https://sketch.com -->
    <title>plusIcon</title>
    <desc>Created with Sketch.</desc>
    <g id="Page-1" stroke="none" stroke-width="1" fill="none" fill-rule="evenodd">
        <g id="plusIcon" fill="#000000" fill-rule="nonzero">
            <path d="M39,0 C17.495,0 0,17.495 0,39 C0,60.505 17.495,78 39,78 C60.505,78 78,60.505 78,39 C78,17.495 60.505,0 39,0 Z M59.27,43.5 L43.5,43.5 L43.5,59.27 C43.5,61.751 41.481,63.77 39,63.77 C36.519,63.77 34.5,61.751 34.5,59.27 L34.5,43.5 L18.73,43.5 C16.249,43.5 14.23,41.481 14.23,39 C14.23,36.519 16.249,34.5 18.73,34.5 L34.5,34.5 L34.5,18.73 C34.5,16.249 36.519,14.23 39,14.23 C41.481,14.23 43.5,16.249 43.5,18.73 L43.5,34.5 L59.27,34.5 C61.751,34.5 63.77,36.519 63.77,39 C63.77,41.481 61.751,43.5 59.27,43.5 Z" id="Shape"></path>
        </g>
    </g>
</svg>