<?xml version="1.0" encoding="UTF-8"?>
<svg width="512px" height="406px" viewBox="0 0 512 406" version="1.1" xmlns="http://www.w3.org/2000/svg" xmlns:xlink="http://www.w3.org/1999/xlink">
    <!-- Generator: Sketch 57.1 (83088) - https://sketch.com -->
    <title>wifiIcon</title>
    <desc>Created with Sketch.</desc>
    <g id="Page-1" stroke="none" stroke-width="1" fill="none" fill-rule="evenodd">
        <g id="wifiIcon" fill="#000000" fill-rule="nonzero">
            <path d="M273.25,1.58 C279.53,1.86 287.92,2.43 297.74,3.68 C318.436016,6.40009011 338.805468,11.1976322 358.54,18 C386.558497,27.697717 413.107927,41.207978 437.44,58.15 C463.336109,76.1179651 486.539383,97.6847872 506.35,122.2 C513.86,131.43 513.51,139.25 505.3,147.79 C499.906667,153.403333 494.513333,159.016667 489.12,164.63 C486.408443,167.608696 482.504609,169.215302 478.481896,169.008066 C474.459182,168.800829 470.74111,166.801568 468.35,163.56 C437.88,124.75 400.19,95.34 354.35,76.92 C244.54,32.87 120.21,66.48 45.85,160.09 C35.18,173.53 31.08,173.72 19.15,161.36 C14.45,156.49 9.71,151.65 5.08,146.72 C-1.04967545,140.163456 -1.35373683,130.073757 4.37,123.16 C21.08,102.84 56.71,62.46 109.8,36.43 C109.8,36.43 156.16,13.7 203.16,5.33 C210.59,4.01 217.91,3.08 217.91,3.08 C221.43,2.63 227.39,1.89 235.24,1.41 C240.45,1.09 246.81,0.88 254.07,0.99 L273.25,1.58 Z" id="Path"></path>
            <path d="M268.5,403 C265.07,404.21 255.5,407.06 245.03,403.21 C231.12,398.09 221.03,383.07 222.6,366.7 C224.13,350.7 236.16,337.7 251.95,335.75 C265.69,334.04 276.57,339.55 283.83,351.09 C291.731053,362.810278 291.663636,378.169534 283.66,389.82 C280.398915,394.809045 276.006557,398.958144 270.84,401.93 L268.5,403 Z" id="Path"></path>
            <path d="M256.25,114.46 C329,116.37 386.7,147.18 430.31,205.1 C435.65,212.2 434.88,221.2 428.68,227.82 C422.48,234.44 416.3,240.82 410.03,247.22 C403.14,254.28 396.77,253.79 391.29,245.57 C376.39,223.23 357.48,205.16 334.07,191.96 C261.14,150.85 170.15,172.96 122.18,243.28 C121.117809,245.019803 119.945415,246.68988 118.67,248.28 C114.47,253.01 108.36,253.56 103.89,249.15 C96.54,241.91 89.34,234.49 82.43,226.83 C76.82,220.6 76.7,211.78 81.86,204.83 C116.94,157.88 162.74,127.94 220.8,117.58 C224.96,116.84 229.14,116.16 233.34,115.74 C240.941909,114.829218 248.593947,114.401692 256.25,114.46 Z" id="Path"></path>
            <path d="M256.95,228.08 C298.34,229.08 332.71,245.91 359.75,277.9 C365.53,284.74 365.14,293.69 358.86,300.44 C352.41,307.38 345.79,314.16 339.14,320.91 C333.31,326.83 327.05,326.49 321.94,319.84 C317.626547,313.968135 312.665255,308.60095 307.15,303.84 C272.15,274.89 222.38,279.84 193.73,315.11 C192.45,316.68 191.28,318.34 190,319.92 C184.76,326.38 178.61,326.74 172.76,320.79 C166.24,314.123333 159.783333,307.423333 153.39,300.69 C146.59,293.45 146.47,284.58 152.98,277.01 C180.17,245.41 214.51,228.9 256.95,228.08 Z" id="Path"></path>
        </g>
    </g>
</svg>