<?xml version="1.0" encoding="UTF-8"?>
<svg width="57px" height="87px" viewBox="0 0 57 87" version="1.1" xmlns="http://www.w3.org/2000/svg" xmlns:xlink="http://www.w3.org/1999/xlink">
    <!-- Generator: Sketch 57.1 (83088) - https://sketch.com -->
    <title>ambient light icon</title>
    <desc>Created with Sketch.</desc>
    <g id="Page-1" stroke="none" stroke-width="1" fill="none" fill-rule="evenodd">
        <g id="ambient-light-icon" fill="#000000" fill-rule="nonzero">
            <g id="Group">
                <path d="M53.474,16.12 C47.667,4.434 35.798,0.468 28.363,0.468 C20.927,0.468 9.031,4.434 3.224,16.119 C-2.583,27.805 2.094,38.641 7.76,45.865 C13.426,53.089 14.275,56.277 14.629,58.047 C14.983,59.818 13.848,62.58 16.012,64.491 C18.177,66.405 28.363,66.688 28.363,66.688 C28.363,66.688 38.517,66.405 40.681,64.491 C42.846,62.58 41.695,59.817 42.049,58.047 C42.403,56.277 43.243,53.089 48.909,45.865 C54.577,38.642 59.281,27.806 53.474,16.12 Z" id="Path"></path>
                <path d="M41.455,68.46 C41.178,67.295 40,66.525 39,66.758 L39,66.749 C35,67.807 28.504,67.792 28.504,67.792 C28.504,67.792 22.592,67.807 18.081,66.749 L18.04,66.758 C16.704,66.526 15.69,67.295 15.412,68.46 C15.122,69.678 15.827,70.892 17.045,71.183 C17.149,71.206 17.247,71.225 17.351,71.234 C22.373,72.333 28.102,72.312 28.351,72.31 C28.599,72.312 34.327,72.333 39.347,71.235 C39.451,71.225 39.632,71.207 39.736,71.183 C40.953,70.892 41.745,69.678 41.455,68.46 Z" id="Path"></path>
                <path d="M41.351,74.407 C41.074,73.242 40.078,72.474 38.742,72.708 L38.739,72.699 C34.228,73.757 28.4,73.741 28.4,73.741 C28.4,73.741 22.566,73.757 18.056,72.699 L18.053,72.708 C16.717,72.475 15.722,73.242 15.443,74.407 C15.154,75.625 15.869,76.841 17.086,77.13 C17.191,77.155 17.295,77.174 17.399,77.183 C22.42,78.284 28.15,78.262 28.4,78.259 C28.648,78.262 34.377,78.283 39.398,77.183 C39.501,77.174 39.605,77.156 39.708,77.13 C40.925,76.841 41.641,75.625 41.351,74.407 Z" id="Path"></path>
                <path d="M39.433,80.527 C39.077,79.544 38,78.838 37,79.041 L37,79.035 C34,79.958 28.184,79.92 28.184,79.92 C28.184,79.92 23.242,79.958 19.298,79.035 L19.34,79.041 C18.171,78.838 17.43,79.544 17.073,80.527 C16.205,82.926 21.378,86.1370002 28.25,86.1370002 C35.169,86.138 40.3,82.927 39.433,80.527 Z" id="Path"></path>
            </g>
        </g>
    </g>
</svg>