<?xml version="1.0" encoding="UTF-8"?>
<svg width="96px" height="100px" viewBox="0 0 96 100" version="1.1" xmlns="http://www.w3.org/2000/svg" xmlns:xlink="http://www.w3.org/1999/xlink">
    <!-- Generator: Sketch 64 (93537) - https://sketch.com -->
    <title>Bell</title>
    <desc>Created with Sketch.</desc>
    <g id="Page-1" stroke="none" stroke-width="1" fill="none" fill-rule="evenodd">
        <g id="Bell" fill="#000000" fill-rule="nonzero">
            <g id="Group">
                <path d="M50,7 C53.45,7 57.05,7.19 59.81,9.46 C63.56,12.54 65.81,19.46 66.39,29.6 C67.87,56.33 86.22,73.47 88.78,75.74 L88.78,75.74 L88.78,75.86 L7.25,75.86 L7.25,75.73 L7.25,75.73 C9.84,73.44 28.16,56.3 29.64,29.59 C30.2,19.5 32.48,12.54 36.23,9.46 C39,7.19 42.58,7 46,7 L50,7 M50,0 L46,0 C37.63,0 24.22,1.07 22.65,29.21 C21.24,54.67 2.44,70.64 2.44,70.64 C1.13442965,71.8844726 0.351430014,73.5791841 0.25,75.38 L0.25,80 C0.255486412,81.588302 1.54169802,82.8745136 3.13,82.88 L92.87,82.88 C94.458302,82.8745136 95.7445136,81.588302 95.75,80 L95.75,75.4 C95.6475795,73.5994314 94.86474,71.9050665 93.56,70.66 C93.56,70.66 74.76,54.66 73.35,29.23 C71.78,1.07 58.37,0 50,0 L50,0 Z" id="Shape"></path>
                <path d="M59.46,88.59 L36.54,88.59 C36.54,93.84 40.84,100 46.09,100 L49.91,100 C55.16,100 59.46,93.84 59.46,88.59 L59.46,88.59 L59.46,88.59 Z" id="Path"></path>
            </g>
        </g>
    </g>
</svg>