<?xml version="1.0" encoding="UTF-8"?>
<svg width="223px" height="146px" viewBox="0 0 223 146" version="1.1" xmlns="http://www.w3.org/2000/svg" xmlns:xlink="http://www.w3.org/1999/xlink">
    <!-- Generator: Sketch 57.1 (83088) - https://sketch.com -->
    <title>chargingIcon</title>
    <desc>Created with Sketch.</desc>
    <g id="Page-1" stroke="none" stroke-width="1" fill="none" fill-rule="evenodd">
        <g id="chargingIcon" transform="translate(0.000000, 4.000000)" stroke-width="8">
            <path d="M198,42 L198,97 L211,97 C215.418278,97 219,93.418278 219,89 L219,50 C219,45.581722 215.418278,42 211,42 L198,42 Z" id="Rectangle" stroke="#000000"></path>
            <rect id="Rectangle" stroke="#000000" fill-rule="nonzero" x="4.8749998" y="4.2083325" width="193" height="130" rx="10"></rect>
            <rect id="Rectangle" stroke="#FFFFFF" fill="#000000" x="13" y="12" width="177" height="114" rx="10"></rect>
            <path d="M117.846464,-2.02306704e-15 C115.724265,-0.0194277181 113.790435,0.929121797 112.929294,2.41249945 L70.4574527,75.4589347 C69.7271906,76.71552 69.8784926,78.1693875 70.8594594,79.3218334 C71.840426,80.47428 73.517666,81.1685956 75.315855,81.1666174 L89.9890092,81.1666174 L75.4333964,133.090086 C74.8824545,135.057148 76.298645,137.036055 78.7622072,137.741582 C81.2257693,138.44711 83.9934476,137.666401 85.2677425,135.906497 L138.337953,62.8451046 C139.246204,61.5880837 139.218268,60.0576281 138.264489,58.8204831 C137.310709,57.5833381 135.573072,56.8236695 133.695041,56.8227913 L113.281917,56.8227913 L123.0379,4.62963974 C123.252326,3.47373784 122.805543,2.30319838 121.811665,1.41699174 C120.817788,0.530785099 119.373053,0.0147227544 117.846464,-2.02306704e-15 L117.846464,-2.02306704e-15 Z" id="Shape" stroke="#FFFFFF" fill="#000000" fill-rule="nonzero"></path>
        </g>
    </g>
</svg>