<?xml version="1.0" encoding="UTF-8"?>
<svg width="275px" height="436px" viewBox="0 0 275 436" version="1.1" xmlns="http://www.w3.org/2000/svg" xmlns:xlink="http://www.w3.org/1999/xlink">
    <!-- Generator: Sketch 64 (93537) - https://sketch.com -->
    <title>lightBulb</title>
    <desc>Created with Sketch.</desc>
    <g id="Page-1" stroke="none" stroke-width="1" fill="none" fill-rule="evenodd">
        <g id="lightBulb">
            <path d="M262.905,139.773 C262.892,140.376 262.881,140.979 262.88,141.582 C261.966,187.545 242.721,213.131 222.347,240.217 C203.368,265.448 183.77,291.498 182.075,333.975 L92.864,333.975 C91.169,291.497 71.573,265.446 52.594,240.213 C32.213,213.117 12.962,187.523 12.056,141.459 C12.0239967,140.37 12.0239967,139.279 12.0239967,138.189 C12.0239967,68.992 68.291,12.696 137.453,12.696 C206.64,12.696 262.928,68.992 262.928,138.184 C262.928,138.713 262.916,139.244 262.905,139.773 Z" id="inside" fill-opacity="0" fill="#F5A623" fill-rule="nonzero"></path>
            <g id="Group" fill="#000000" fill-rule="nonzero">
                <path d="M274.88,141.642 C274.88,141.101 274.892,140.561 274.902,140.02 C274.915,139.411 274.927,138.802 274.927,138.188 C274.927,62.374 213.256,0.695 137.452,0.695 C61.673,0.695 0.023,62.374 0.023,138.188 C0.023,139.4 0.023,140.614 0.059,141.759 C1.039,191.636 22.372,219.997 43.002,247.426 C62.53,273.389 80.976,297.912 80.981,339.958 C80.981,339.964 80.98,339.969 80.98,339.974 L80.98,368.715 L80.98,397.504 C80.98,400.817 83.666,403.504 86.98,403.504 L91.848,403.504 C95.388,421.404 114.486,435.123 137.452,435.123 C160.434,435.123 179.547,421.404 183.089,403.504 L187.956,403.504 C191.269,403.504 193.956,400.817 193.956,397.504 L193.956,368.715 L193.956,339.974 C193.956,297.92 212.404,273.395 231.936,247.429 C252.569,220 273.904,191.638 274.878,141.759 C274.88,141.72 274.88,141.681 274.88,141.642 Z M181.956,362.716 L92.981,362.716 L92.981,345.975 L181.956,345.975 L181.956,362.716 Z M181.956,391.505 L177.684,391.505 L97.254,391.505 L92.981,391.505 L92.981,374.716 L181.956,374.716 L181.956,391.505 Z M137.452,423.124 C121.353,423.124 107.816,414.746 104.201,403.505 L170.736,403.505 C167.117,414.746 153.567,423.124 137.452,423.124 Z M262.905,139.773 C262.892,140.376 262.881,140.979 262.88,141.582 C261.966,187.545 242.721,213.131 222.347,240.217 C203.368,265.448 183.77,291.498 182.075,333.975 L92.864,333.975 C91.169,291.497 71.573,265.446 52.594,240.213 C32.213,213.117 12.962,187.523 12.056,141.459 C12.0239967,140.37 12.0239967,139.279 12.0239967,138.189 C12.0239967,68.992 68.291,12.696 137.453,12.696 C206.64,12.696 262.928,68.992 262.928,138.184 C262.928,138.713 262.916,139.244 262.905,139.773 Z" id="Shape"></path>
            </g>
            <path d="M262.905,139.773 C262.892,140.376 262.881,140.979 262.88,141.582 C261.966,187.545 242.721,213.131 222.347,240.217 C203.368,265.448 183.77,291.498 182.075,333.975 L92.864,333.975 C91.169,291.497 71.573,265.446 52.594,240.213 C32.213,213.117 12.962,187.523 12.056,141.459 C12.0239967,140.37 12.0239967,139.279 12.0239967,138.189 C12.0239967,68.992 68.291,12.696 137.453,12.696 C206.64,12.696 262.928,68.992 262.928,138.184 C262.928,138.713 262.916,139.244 262.905,139.773 Z" id="Path" fill="#F5A623"></path>
        </g>
    </g>
</svg>