<?xml version="1.0" encoding="UTF-8"?>
<svg width="2414px" height="3041px" viewBox="0 0 2414 3041" version="1.1" xmlns="http://www.w3.org/2000/svg" xmlns:xlink="http://www.w3.org/1999/xlink">
    <!-- Generator: Sketch 57.1 (83088) - https://sketch.com -->
    <title>safetyIcon</title>
    <desc>Created with Sketch.</desc>
    <g id="Page-1" stroke="none" stroke-width="1" fill="none" fill-rule="evenodd">
        <g id="safetyIcon" fill="#000000" fill-rule="nonzero">
            <g id="Group">
                <path d="M2346.2,493 L2339.8,493 C1930.2,493 1533.4,320.2 1255,19.4 C1229.4,-6.2 1181.4,-6.2 1159,19.4 C880.6,320.2 483.8,493 74.2,493 L67.8,493 C32.6,493 0.6,521.8 0.6,560.2 L0.6,1286.6 C0.6,1885 298.2,2441.8 794.2,2774.6 L1168.6,3027.4 C1178.2,3033.8 1191,3040.2 1207,3040.2 C1223,3040.2 1232.6,3037 1245.4,3027.4 L1619.8,2774.6 C2115.8,2441.8 2413.4,1885 2413.4,1286.6 L2413.4,557 C2410.2,521.8 2381.4,493 2346.2,493 Z M1741.4,1293 L1181.4,1901 C1152.6,1933 1111,1949 1069.4,1949 C1027.8,1949 986.2,1929.8 957.4,1901 L675.8,1597 C618.2,1533 621.4,1437 685.4,1379.4 C749.4,1321.8 845.4,1325 903,1389 L1072.6,1571.4 L1520.6,1088.2 C1578.2,1024.2 1674.2,1021 1738.2,1078.6 C1795.8,1133 1799,1229 1741.4,1293 Z" id="Shape"></path>
            </g>
        </g>
    </g>
</svg>