<?xml version="1.0" encoding="UTF-8"?>
<svg width="318px" height="540px" viewBox="0 0 318 540" version="1.1" xmlns="http://www.w3.org/2000/svg" xmlns:xlink="http://www.w3.org/1999/xlink">
    <!-- Generator: Sketch 64 (93537) - https://sketch.com -->
    <title>sensorIcon</title>
    <desc>Created with Sketch.</desc>
    <g id="Page-1" stroke="none" stroke-width="1" fill="none" fill-rule="evenodd">
        <g id="sensorIcon" fill-rule="nonzero">
            <path d="M121.126343,29.9625485 C146.288788,29.9625485 166.686979,50.3364232 166.686979,75.4688712 L166.686979,344.866302 L177.92527,353.967566 C199.400163,371.064107 212.009994,396.922454 212.247616,424.350679 C212.247616,474.615575 171.451232,515.363324 121.126343,515.363324 C70.8014533,515.363324 30.0050698,474.615575 30.0050698,424.350679 C30.2426914,396.922454 42.8525223,371.064107 64.327416,353.967566 L75.5657063,344.866302 L75.5657063,75.4688712 C75.5657063,50.3364232 95.9638981,29.9625485 121.126343,29.9625485 M120,0 C78.5809771,0 45.0042248,33.5367247 45.0042248,74.9063712 L45.0042248,326.591778 C5.23051174,358.398272 -10.0958276,411.824816 6.77873941,459.843138 C23.6533064,507.861461 69.04887,540 120,540 C170.95113,540 216.346694,507.861461 233.221261,459.843138 C250.095828,411.824816 234.769488,358.398272 194.995775,326.591778 L194.995775,74.9063712 C194.995775,33.5367247 161.419023,0 120,0 Z" id="Shape" fill="#000000"></path>
            <path d="M134.99889,165 L105.00111,165 L105.00111,361.978217 C75.7486741,369.527056 56.6758082,397.637971 60.4826229,427.592659 C64.2894377,457.547346 89.788214,480 120,480 C150.211786,480 175.710562,457.547346 179.517377,427.592659 C183.324192,397.637971 164.251326,369.527056 134.99889,361.978217 L134.99889,165 Z" id="Path" fill="#F5A623"></path>
            <rect id="Rectangle" fill="#2EB457" x="228" y="240" width="90" height="30"></rect>
            <rect id="Rectangle-Copy" fill="#F5A623" x="228" y="180" width="90" height="30"></rect>
            <rect id="Rectangle-Copy-2" fill="#F5A623" x="228" y="120" width="90" height="30"></rect>
            <rect id="Rectangle-Copy-3" fill="#963232" x="228" y="60" width="90" height="30"></rect>
        </g>
    </g>
</svg>