<?xml version="1.0" encoding="UTF-8"?>
<svg width="96px" height="48px" viewBox="0 0 96 48" version="1.1" xmlns="http://www.w3.org/2000/svg" xmlns:xlink="http://www.w3.org/1999/xlink">
    <!-- Generator: Sketch 57.1 (83088) - https://sketch.com -->
    <title>noun_motor_1601858</title>
    <desc>Created with Sketch.</desc>
    <g id="Page-1" stroke="none" stroke-width="1" fill="none" fill-rule="evenodd">
        <g id="noun_motor_1601858" fill="#000000" fill-rule="nonzero">
            <rect id="Rectangle" x="0.712" y="22.45" width="16.333" height="3.099"></rect>
            <rect id="Rectangle" x="0.712" y="17.705" width="16.333" height="3.097"></rect>
            <rect id="Rectangle" x="0.712" y="27.195" width="16.333" height="3.097"></rect>
            <rect id="Rectangle" x="18.691" y="22.796" width="10.517" height="2.407"></rect>
            <polygon id="Path" points="30.854 26.85 30.854 21.149 30.854 0.375 38.467 0.375 38.467 47.624 30.854 47.624"></polygon>
            <path d="M95.287,44.089 C95.287,46.038 93.703,47.624 91.753,47.624 L86.34,47.624 L86.34,0.375 L91.753,0.375 C93.703,0.375 95.287,1.961 95.287,3.909 L95.287,44.089 Z" id="Path"></path>
            <path d="M40.113,0.375 L40.113,47.624 L84.692,47.624 L84.692,0.375 L40.113,0.375 Z M80.797,40.408 C80.797,42.907 78.771,44.934 76.27,44.934 C73.769,44.934 71.744,42.907 71.744,40.408 L71.744,34.629 L80.798,34.629 L80.798,40.408 L80.797,40.408 Z M80.797,13.371 L71.743,13.371 L71.743,7.592 C71.743,5.092 73.768,3.066 76.269,3.066 C78.77,3.066 80.796,5.092 80.796,7.592 L80.796,13.371 L80.797,13.371 Z" id="Shape"></path>
            <circle id="Oval" cx="76.271" cy="8.217" r="2.167"></circle>
            <circle id="Oval" cx="76.271" cy="39.78" r="2.167"></circle>
        </g>
    </g>
</svg>