<?xml version="1.0" encoding="UTF-8"?>
<svg width="52px" height="52px" viewBox="0 0 52 52" version="1.1" xmlns="http://www.w3.org/2000/svg" xmlns:xlink="http://www.w3.org/1999/xlink">
    <!-- Generator: Sketch 57.1 (83088) - https://sketch.com -->
    <title>voltageIcon</title>
    <desc>Created with Sketch.</desc>
    <g id="Page-1" stroke="none" stroke-width="1" fill="none" fill-rule="evenodd">
        <g id="voltageIcon" transform="translate(2.000000, 2.000000)">
            <path d="M31,33 L29.22,33 L31.98,19.196 C32.042,18.884 31.952,18.56 31.736,18.324 C31.522,18.092 31.21,17.972 30.888,18.006 L23.442,18.834 L26.946,8.316 C27.048,8.012 26.996,7.676 26.81,7.416 C26.624,7.154 26.322,7 26,7 L18,7 C17.546,7 17.148,7.306 17.034,7.746 L12.034,26.746 C11.948,27.074 12.034,27.424 12.262,27.674 C12.492,27.924 12.834,28.048 13.166,27.986 L23.704,26.23 L22.198,33 L20,33 C19.654,33 19.332,33.18 19.15,33.474 C18.968,33.768 18.95,34.136 19.106,34.446 L23.106,42.446 C23.256,42.744 23.542,42.948 23.874,42.99 C23.916,42.996 23.958,42.998 24,42.998 C24.286,42.998 24.562,42.874 24.752,42.656 L31.752,34.656 C32.01,34.362 32.072,33.942 31.91,33.584 C31.748,33.228 31.392,33 31,33 Z" id="Shape" fill="#000000" fill-rule="nonzero"></path>
            <circle id="Oval" stroke="#000000" stroke-width="4" cx="24" cy="24" r="24"></circle>
        </g>
    </g>
</svg>