<?xml version="1.0" encoding="UTF-8"?>
<svg width="99px" height="70px" viewBox="0 0 99 70" version="1.1" xmlns="http://www.w3.org/2000/svg" xmlns:xlink="http://www.w3.org/1999/xlink">
    <!-- Generator: Sketch 57.1 (83088) - https://sketch.com -->
    <title>alarmIcon</title>
    <desc>Created with Sketch.</desc>
    <g id="Page-1" stroke="none" stroke-width="1" fill="none" fill-rule="evenodd">
        <g id="alarmIcon" transform="translate(-10.000000, 0.000000)" fill="#000000" fill-rule="nonzero" stroke="#000000">
            <g id="Group" transform="translate(0.000000, 5.000000)" stroke-width="2">
                <g transform="translate(99.000000, 23.500000) rotate(29.000000) translate(-99.000000, -23.500000) translate(84.000000, 6.000000)" id="Path">
                    <path d="M1.968,10.295 L0.829,13.073 C0.623,13.575 0.861,14.138 1.354,14.365 C8.937,17.864 13.995,25.361 14.4,33.702 C14.426,34.244 14.859,34.676 15.402,34.6730155 L18.404,34.656 C18.966,34.653 19.428,34.186 19.405,33.625 C18.967,23.308 12.701,14.022 3.299,9.753 C2.787,9.521 2.181,9.775 1.968,10.295 Z"></path>
                    <path d="M5.765,1.04 L4.627,3.815 C4.421,4.318 4.66,4.885 5.157,5.106 C16.455,10.139 23.973,21.282 24.41,33.643 C24.429,34.187 24.865,34.62 25.409,34.6170155 L28.408,34.6 C28.969,34.597 29.428,34.132 29.41,33.572 C28.945,19.231 20.217,6.295 7.094,0.494 C6.58,0.269 5.977,0.521 5.765,1.04 Z"></path>
                </g>
                <g transform="translate(0.000000, 3.000000)" id="Path">
                    <path d="M35.5543543,10.6337724 L36.6933543,13.4117724 C36.8993543,13.9137724 36.6613543,14.4767724 36.1683543,14.7037724 C28.5863543,18.2027724 23.5273543,25.6997724 23.1223543,34.0407724 C23.0963543,34.5827724 22.6633543,35.0147724 22.1203543,35.011788 L19.1183543,34.9947724 C18.5563543,34.9917724 18.0943543,34.5247724 18.1173543,33.9637724 C18.5553543,23.6467724 24.8213543,14.3607724 34.2233543,10.0917724 C34.7353543,9.85977243 35.3413543,10.1137724 35.5543543,10.6337724 Z" transform="translate(27.442061, 22.508617) rotate(-26.000000) translate(-27.442061, -22.508617) "></path>
                    <path d="M30.4149262,4.87534623 L31.5529262,7.65034623 C31.7589262,8.15334623 31.5199262,8.72034623 31.0229262,8.94134623 C19.7249262,13.9743462 12.2069262,25.1173462 11.7699262,37.4783462 C11.7509262,38.0223462 11.3149262,38.4553462 10.7709262,38.4523617 L7.77192625,38.4353462 C7.21092625,38.4323462 6.75192625,37.9673462 6.76992625,37.4073462 C7.23492625,23.0663462 15.9629262,10.1303462 29.0859262,4.32934623 C29.5999262,4.10434623 30.2029262,4.35634623 30.4149262,4.87534623 Z" transform="translate(19.198184, 21.349557) rotate(-26.000000) translate(-19.198184, -21.349557) "></path>
                </g>
            </g>
            <path d="M89.051,46.067 L83.71,40.583 L83.71,30.418 C83.71,20.282 77.714,11.573 68.726,8.052 C67.824,3.994 64.254,0.955 60,0.955 C55.746,0.955 52.176,3.994 51.274,8.052 C42.286,11.573 36.29,20.282 36.29,30.418 L36.29,40.583 L30.949,46.067 C30.476,46.553 30.211,47.204 30.211,47.882 L30.211,55.626 C30.211,57.017 31.339,58.145 32.73,58.145 L49.535,58.145 C49.548,63.71 54.432,68.588 60,68.588 C65.568,68.588 70.452,63.71 70.465,58.144 L87.27,58.144 C88.661,58.144 89.789,57.016 89.789,55.625 L89.789,47.881 C89.789,47.204 89.524,46.553 89.051,46.067 Z M60,63.55 C57.023,63.55 54.587,60.744 54.574,58.145 L65.427,58.145 C65.413,60.744 62.977,63.55 60,63.55 Z M84.751,53.106 L35.249,53.106 L35.249,48.872 L41.328,42.631 C41.328,36.66 41.328,31.504 41.328,30.418 C41.328,21.235 47.407,13.689 56.092,11.852 C56.092,10.915 56.092,10.246 56.092,10.064 C56.092,7.893 57.829,5.993 60,5.993 C62.171,5.993 63.908,7.893 63.908,10.064 C63.908,10.245 63.908,10.915 63.908,11.852 C72.592,13.689 78.672,21.234 78.672,30.418 C78.672,31.775 78.672,36.659 78.672,42.631 L84.751,48.872 L84.751,53.106 L84.751,53.106 Z" id="Shape"></path>
        </g>
    </g>
</svg>