<?xml version="1.0" encoding="UTF-8"?>
<svg width="80px" height="80px" viewBox="0 0 80 80" version="1.1" xmlns="http://www.w3.org/2000/svg" xmlns:xlink="http://www.w3.org/1999/xlink">
    <!-- Generator: Sketch 57.1 (83088) - https://sketch.com -->
    <title>clear</title>
    <desc>Created with Sketch.</desc>
    <g id="Page-1" stroke="none" stroke-width="1" fill="none" fill-rule="evenodd">
        <g id="clear" fill="#000000" fill-rule="nonzero">
            <path d="M40.001,0.392 C18.126,0.392 0.394,18.125 0.394,39.999 C0.394,61.874 18.127,79.606 40.001,79.606 C61.875,79.606 79.608,61.874 79.608,39.999 C79.608,18.125 61.875,0.392 40.001,0.392 Z M63.268,45.525 L63.268,45.525 L45.526,45.525 L34.476,45.525 L16.734,45.525 L16.734,45.525 C13.681,45.525 11.207,43.05 11.207,40 C11.207,36.948 13.68,34.475 16.734,34.475 L16.734,34.475 L34.476,34.475 L45.526,34.475 L63.268,34.475 L63.268,34.475 C66.322,34.475 68.794,36.948 68.794,40 C68.794,43.052 66.322,45.525 63.268,45.525 Z" id="Shape"></path>
        </g>
    </g>
</svg>