<?xml version="1.0" encoding="UTF-8"?>
<svg width="100px" height="78px" viewBox="0 0 100 78" version="1.1" xmlns="http://www.w3.org/2000/svg" xmlns:xlink="http://www.w3.org/1999/xlink">
    <!-- Generator: Sketch 57.1 (83088) - https://sketch.com -->
    <title>noun_Mesh Network_74809</title>
    <desc>Created with Sketch.</desc>
    <g id="meshIcon" stroke="none" stroke-width="1" fill="none" fill-rule="evenodd">
        <g id="noun_Mesh-Network_74809" fill="#000000" fill-rule="nonzero">
            <path d="M89,5.77777778 C82.8888889,5.77777778 78,10.6666667 78,16.7777778 C78,19 78.6666667,21 79.6666667,22.6666667 L58.8888889,49.1111111 C61.3333333,50.3333333 63.5555556,52.1111111 65.3333333,54.1111111 L86.3333333,27.4444444 C87.2222222,27.6666667 88.1111111,27.7777778 89,27.7777778 C95.1111111,27.7777778 100,22.8888889 100,16.7777778 C100,10.7777778 95.1111111,5.77777778 89,5.77777778 Z" id="Path"></path>
            <path d="M50,56 C48.8888889,56 47.8888889,56.1111111 46.8888889,56.4444444 L26.1111111,29.8888889 C24.3333333,32 22.1111111,33.6666667 19.6666667,34.8888889 L40.4444444,61.4444444 C39.4444444,63.1111111 39,65 39,67 C39,73.1111111 43.8888889,78 50,78 C56.1111111,78 61,73.1111111 61,67 C61,60.8888889 56.1111111,56 50,56 Z" id="Path"></path>
            <path d="M69.6666667,11.4444444 C70.4444444,8.77777778 71.6666667,6.22222222 73.4444444,4.11111111 C66,1.44444444 58.1111111,0 50,0 C38.4444444,0 27.4444444,2.88888889 17.5555556,8.33333333 C15.7777778,7 13.4444444,6.22222222 11,6.22222222 C4.88888889,6.11111111 0,11.1111111 0,17.1111111 C0,23.2222222 4.88888889,28.1111111 11,28.1111111 C17.1111111,28.1111111 22,23.2222222 22,17.1111111 C22,16.4444444 21.8888889,15.7777778 21.7777778,15.2222222 C30.4444444,10.5555556 40,8.11111111 50,8.11111111 C56.7777778,8.11111111 63.4444444,9.22222222 69.6666667,11.4444444 Z" id="Path"></path>
        </g>
    </g>
</svg>