<?xml version="1.0" encoding="UTF-8"?>
<svg width="490px" height="490px" viewBox="0 0 490 490" version="1.1" xmlns="http://www.w3.org/2000/svg" xmlns:xlink="http://www.w3.org/1999/xlink">
    <!-- Generator: Sketch 64 (93537) - https://sketch.com -->
    <title>question-circle</title>
    <desc>Created with Sketch.</desc>
    <g id="Page-1" stroke="none" stroke-width="1" fill="none" fill-rule="evenodd">
        <g id="question-circle" fill-rule="nonzero">
            <path d="M490,245 C490,380.3 380.3,490 245,490 C109.7,490 0,380.3 0,245 C0,109.7 109.7,0 245,0 C380.3,0 490,109.7 490,245 Z" id="Shape" fill="#FFFFFF"></path>
            <path d="M245,326 C219.9,326 199.6,346.4 199.6,371.4 C199.6,396.5 220,416.8 245,416.8 C270,416.8 290.4,396.4 290.4,371.4 C290.4,346.4 270.1,326 245,326 Z" id="Path" fill="#000000"></path>
            <path d="M251.6,81 C197.8,81 163.4,103.7 136.5,144 C133,149.2 134.2,156.3 139.2,160.1 L173.5,186.1 C178.6,190 186,189.1 190,184 C207.6,161.6 219.7,148.6 246.6,148.6 C266.8,148.6 291.7,161.6 291.7,181.2 C291.7,196 279.5,203.6 259.6,214.8 C236.4,227.8 205.6,244 205.6,284.6 L205.6,288.6 C205.6,295.1 210.9,300.5 217.5,300.5 L272.8,300.5 C279.3,300.5 284.7,295.2 284.7,288.6 L284.7,287.3 C284.7,259.2 366.9,258 366.9,181.9 C366.7,124.5 307.3,81 251.6,81 Z" id="Path" fill="#000000"></path>
        </g>
    </g>
</svg>