<?xml version="1.0" encoding="UTF-8"?>
<svg width="79px" height="81px" viewBox="0 0 79 81" version="1.1" xmlns="http://www.w3.org/2000/svg" xmlns:xlink="http://www.w3.org/1999/xlink">
    <!-- Generator: Sketch 57.1 (83088) - https://sketch.com -->
    <title>noun_switch_1617135</title>
    <desc>Created with Sketch.</desc>
    <g id="Page-1" stroke="none" stroke-width="1" fill="none" fill-rule="evenodd">
        <g id="noun_switch_1617135" fill="#000000" fill-rule="nonzero">
            <g id="Group">
                <path d="M67.157,13.854 L57.939,23.073 C62.662,27.797 65.589,34.319 65.589,41.512 C65.589,48.705 62.662,55.226 57.939,59.95 C53.214,64.673 46.692,67.597 39.501,67.597 C32.31,67.597 25.787,64.672 21.063,59.95 C16.339,55.226 13.413,48.706 13.413,41.512 C13.413,34.318 16.339,27.796 21.063,23.073 L11.843,13.854 C4.757,20.94 0.368,30.724 0.368,41.513 C0.368,52.3 4.757,62.083 11.842,69.168 C18.928,76.256 28.711,80.644 39.5,80.644 C50.29,80.644 60.071,76.256 67.157,69.168 C74.243,62.083 78.632,52.3 78.632,41.513 C78.632,30.724 74.243,20.94 67.157,13.854 Z" id="Path"></path>
                <path d="M39.34,49.814 L39.66,49.814 C43.208,49.814 46.086,46.937 46.086,43.39 L46.086,6.783 C46.086,3.233 43.209,0.356 39.66,0.356 L39.34,0.356 C35.791,0.356 32.915,3.233 32.915,6.783 L32.915,43.39 C32.915,46.938 35.791,49.814 39.34,49.814 Z" id="Path"></path>
            </g>
        </g>
    </g>
</svg>